<?xml version="1.0" encoding="UTF-8"?>
<svg id="Layer_1" data-name="Layer 1" xmlns="http://www.w3.org/2000/svg" viewBox="0 0 491.5 240.23">
  <defs>
    <style>
      .cls-1 {
        fill: #0033a1;
      }

      .cls-2 {
        fill: #00833e;
      }
    </style>
  </defs>
  <g>
    <path class="cls-1" d="m138.26,101.62c-7.42-7.5-14.84-14.96-22.25-22.38-.06,1.51-.11,3.52-.17,6.05-.06,2.53-.09,5.97-.09,10.32,0,1.13.01,2.53.04,4.19.03,1.67.06,3.42.09,5.24.03,1.83.07,3.68.13,5.56.06,1.88.11,3.63.17,5.24.06,1.61.11,3.02.17,4.23.06,1.21.11,2.03.17,2.46-.91-.11-1.91-.16-3-.16-1.14,0-2.2.05-3.17.16.11-.54.24-1.53.39-2.98.14-1.45.27-3.19.38-5.2.11-2.02.24-4.21.38-6.57.14-2.36.26-4.73.34-7.1.09-2.36.16-4.68.21-6.94.06-2.26.09-4.27.09-6.05,0-5.16-.02-9.6-.04-13.31-.03-3.71-.1-6.48-.21-8.31h1.37c3.48,3.55,7.2,7.35,11.17,11.41,3.96,4.06,7.9,8.06,11.81,12.02,3.91,3.95,7.62,7.69,11.13,11.21,3.51,3.52,6.58,6.52,9.2,8.99v-10.97c0-5.64-.04-11.14-.13-16.49-.09-5.35-.27-10.39-.56-15.12,1.14.27,2.11.4,2.91.4.68,0,1.6-.13,2.74-.4-.11,1.18-.24,2.96-.38,5.32-.14,2.37-.29,4.89-.43,7.58-.14,2.69-.27,5.32-.38,7.9-.11,2.58-.17,4.65-.17,6.21v4.84c0,1.83.01,3.74.04,5.73.03,1.99.06,3.99.09,6.01.03,2.02.06,3.9.09,5.64.03,1.75.04,3.27.04,4.56v2.66h-1.2c-6.56-7.15-13.55-14.47-20.97-21.97Z"/>
    <path class="cls-1" d="m223.34,122.55c-.8-.11-1.55-.16-2.27-.16h-4.54c-.71,0-1.47.05-2.27.16-.4-1.24-.94-2.73-1.63-4.48-.69-1.75-1.44-3.57-2.27-5.48-.83-1.91-1.67-3.84-2.53-5.81-.86-1.96-1.66-3.83-2.4-5.6-1.83-.05-3.68-.09-5.56-.12-1.88-.03-3.77-.04-5.65-.04-1.77,0-3.51.01-5.22.04-1.71.03-3.45.07-5.22.12-1.83,4.19-3.48,8.18-4.96,11.97-1.48,3.79-2.6,6.92-3.34,9.39-.97-.11-2.03-.16-3.17-.16s-2.2.05-3.17.16c4.62-9.41,9.13-18.76,13.52-28.06,4.39-9.3,8.82-18.76,13.27-28.39h1.63c1.37,3.12,2.85,6.49,4.45,10.12,1.6,3.63,3.22,7.3,4.88,11.01,1.65,3.71,3.31,7.39,4.96,11.05,1.65,3.66,3.21,7.06,4.67,10.2,1.45,3.15,2.77,5.95,3.94,8.43,1.17,2.47,2.13,4.35,2.87,5.64Zm-37.92-25.08c1.48,0,3.02.03,4.62.08,1.6.05,3.14.08,4.62.08,1.6,0,3.2-.01,4.79-.04,1.6-.03,3.2-.07,4.79-.12l-9.5-20.48-9.33,20.48Z"/>
    <path class="cls-1" d="m272.43,120.66c-1.11.51-2.45.97-4.02,1.37-1.57.4-3.32.77-5.26,1.09-1.94.32-3.97.48-6.08.48-4.51,0-8.67-.6-12.5-1.81-3.82-1.21-7.12-3.05-9.89-5.52-2.77-2.47-4.94-5.5-6.51-9.07-1.57-3.57-2.35-7.65-2.35-12.22s.78-8.64,2.35-12.22c1.57-3.57,3.77-6.6,6.59-9.07,2.83-2.47,6.21-4.35,10.14-5.64,3.94-1.29,8.27-1.94,13.01-1.94,3.77,0,7.2.36,10.31,1.09,3.11.73,5.86,1.6,8.26,2.62-.46.75-.83,1.77-1.11,3.06-.29,1.29-.51,2.37-.68,3.23l-.51.16c-.57-.64-1.37-1.37-2.4-2.18-1.03-.81-2.22-1.58-3.6-2.34-1.37-.75-2.91-1.38-4.62-1.89-1.71-.51-3.6-.77-5.65-.77-3.37,0-6.49.51-9.37,1.53-2.88,1.02-5.39,2.59-7.53,4.72-2.14,2.12-3.81,4.81-5.01,8.06-1.2,3.25-1.8,7.11-1.8,11.57s.6,8.32,1.8,11.57c1.2,3.25,2.87,5.94,5.01,8.06,2.14,2.12,4.65,3.7,7.53,4.72,2.88,1.02,6.01,1.53,9.37,1.53,2.05,0,3.95-.24,5.69-.73,1.74-.48,3.34-1.06,4.79-1.73,1.45-.67,2.77-1.4,3.94-2.18,1.17-.78,2.15-1.46,2.95-2.06l.34.32-.77,4.76c-.51.43-1.33.9-2.44,1.41Z"/>
  </g>
  <g>
    <path class="cls-1" d="m40.77,100.59v-11.37c0-4.97,4.32-9.03,9.59-9.03s9.59,4.07,9.59,9.03v74.22h35.45v-73.52c0-23.34-20.27-42.43-45.04-42.43S5.33,66.58,5.33,89.92v37.58c4.79-14.97,18.62-24.84,35.45-26.91Z"/>
    <g>
      <path class="cls-2" d="m48.87,118.22h6.23v-5.23h-6.23c-18.91,0-34.23,14.44-34.23,32.25v17.95h5.55v-17.95c0-14.9,12.87-27.03,28.69-27.03Z"/>
      <path class="cls-2" d="m48.12,108.51h6.98v-5.23h-6.98c-23.63,0-42.79,18.05-42.79,40.31v19.59h5.55v-19.59c0-19.35,16.71-35.09,37.24-35.09Z"/>
      <path class="cls-2" d="m48.7,127.92h6.39v-5.23h-6.39c-13.23,0-23.96,10.11-23.96,22.58v17.92h5.55v-17.92c0-9.57,8.26-17.35,18.42-17.35Z"/>
      <path class="cls-2" d="m55.1,133.15h-5.45c-7.88,0-14.26,6.02-14.26,13.44v16.6h5.55v-16.6c0-2.19.91-4.26,2.55-5.81s3.84-2.41,6.16-2.41h5.45v-5.23Z"/>
    </g>
  </g>
  <g>
    <path class="cls-1" d="m110.97,141.89c0-2.21-.04-4.38-.13-6.5-.08-2.13-.18-4.29-.28-6.5.8.07,1.62.13,2.44.18.82.05,1.63.08,2.44.08.4,0,.89-.02,1.46-.05.57-.03,1.15-.06,1.73-.08.58-.02,1.15-.04,1.68-.08.54-.03.99-.05,1.36-.05.5,0,1.12.02,1.86.05.74.03,1.51.13,2.33.3.82.17,1.63.42,2.44.75.8.33,1.53.82,2.18,1.46.65.64,1.18,1.43,1.58,2.39.4.95.6,2.13.6,3.54,0,2.21-.48,4-1.43,5.37-.95,1.37-2.13,2.44-3.52,3.21-1.39.77-2.86,1.29-4.42,1.56-1.56.27-2.94.4-4.14.4-.77,0-1.47,0-2.11-.03-.64-.02-1.29-.06-1.96-.13v2.76c0,2.21.04,4.39.12,6.53.08,2.14.18,4.25.28,6.33-.77-.07-1.59-.1-2.46-.1s-1.69.03-2.46.1c.1-2.08.19-4.19.28-6.33.08-2.14.13-4.32.13-6.53v-8.64Zm4.12,3.77c1.14.27,2.33.4,3.57.4,1.04,0,2.11-.12,3.21-.35,1.1-.23,2.12-.66,3.04-1.28.92-.62,1.67-1.47,2.26-2.56.59-1.09.88-2.49.88-4.19,0-1.44-.2-2.61-.6-3.52-.4-.9-.96-1.61-1.68-2.11-.72-.5-1.6-.85-2.64-1.03-1.04-.18-2.21-.28-3.52-.28h-4.52v14.92Z"/>
    <path class="cls-1" d="m163.88,135.39c-.08-2.13-.18-4.29-.28-6.5.43.07.85.13,1.26.18.4.05.8.08,1.21.08s.8-.02,1.21-.08c.4-.05.82-.11,1.26-.18-.1,2.21-.19,4.38-.28,6.5-.08,2.13-.12,4.29-.12,6.5v8.64c0,2.21.04,4.39.12,6.53.08,2.14.18,4.25.28,6.33-.77-.07-1.59-.1-2.46-.1s-1.69.03-2.46.1c.1-2.08.19-4.19.28-6.33.08-2.14.13-4.32.13-6.53v-4.52c-1.81-.03-3.56-.06-5.25-.08-1.69-.02-3.44-.03-5.25-.03s-3.56,0-5.25.03c-1.69.02-3.44.04-5.25.08v4.52c0,2.21.04,4.39.13,6.53.08,2.14.18,4.25.28,6.33-.77-.07-1.59-.1-2.46-.1s-1.69.03-2.46.1c.1-2.08.19-4.19.28-6.33.08-2.14.12-4.32.12-6.53v-8.64c0-2.21-.04-4.38-.12-6.5-.08-2.13-.18-4.29-.28-6.5.43.07.85.13,1.26.18.4.05.8.08,1.21.08s.8-.02,1.21-.08c.4-.05.82-.11,1.26-.18-.1,2.21-.19,4.38-.28,6.5-.08,2.13-.13,4.29-.13,6.5v1.76c1.81.03,3.56.07,5.25.1,1.69.03,3.44.05,5.25.05s3.56-.02,5.25-.05c1.69-.03,3.44-.07,5.25-.1v-1.76c0-2.21-.04-4.38-.13-6.5Z"/>
    <path class="cls-1" d="m177.84,135.39c-.08-2.13-.18-4.29-.28-6.5.44.07.85.13,1.26.18s.8.08,1.21.08.8-.02,1.21-.08c.4-.05.82-.11,1.25-.18-.1,2.21-.19,4.38-.28,6.5-.08,2.13-.12,4.29-.12,6.5v8.64c0,2.21.04,4.39.12,6.53.08,2.14.18,4.25.28,6.33-.77-.07-1.59-.1-2.46-.1s-1.69.03-2.46.1c.1-2.08.19-4.19.28-6.33.08-2.14.13-4.32.13-6.53v-8.64c0-2.21-.04-4.38-.13-6.5Z"/>
    <path class="cls-1" d="m191.8,135.39c-.08-2.13-.18-4.29-.28-6.5.44.07.85.13,1.26.18s.8.08,1.21.08.8-.02,1.21-.08c.4-.05.82-.11,1.25-.18-.1,2.21-.19,4.38-.28,6.5-.08,2.13-.12,4.29-.12,6.5,0,4.22.02,7.88.05,10.97.03,3.1.07,5.87.1,8.31,2.38,0,4.65-.02,6.83-.08s4.52-.24,7.03-.58c-.17.6-.25,1.1-.25,1.51,0,.37.08.82.25,1.36-1.54-.07-3.08-.1-4.62-.1h-9.27c-1.49,0-3.04.03-4.65.1.1-2.08.19-4.19.28-6.33.08-2.14.13-4.32.13-6.53v-8.64c0-2.21-.04-4.38-.13-6.5Z"/>
    <path class="cls-1" d="m214.23,146.21c0-2.85.46-5.38,1.38-7.61.92-2.23,2.21-4.11,3.87-5.65,1.66-1.54,3.64-2.71,5.95-3.52s4.84-1.21,7.58-1.21,5.32.4,7.63,1.21c2.31.8,4.29,1.98,5.95,3.52,1.66,1.54,2.95,3.42,3.87,5.65.92,2.23,1.38,4.76,1.38,7.61s-.46,5.38-1.38,7.61c-.92,2.23-2.21,4.11-3.87,5.65-1.66,1.54-3.64,2.69-5.95,3.44-2.31.75-4.86,1.13-7.63,1.13s-5.27-.38-7.58-1.13c-2.31-.75-4.29-1.9-5.95-3.44-1.66-1.54-2.95-3.42-3.87-5.65-.92-2.23-1.38-4.76-1.38-7.61Zm32.7,0c0-2.78-.35-5.18-1.05-7.21s-1.68-3.7-2.94-5.02c-1.26-1.32-2.73-2.3-4.42-2.94-1.69-.64-3.52-.95-5.5-.95s-3.76.32-5.45.95c-1.69.64-3.16,1.62-4.42,2.94-1.26,1.32-2.24,3-2.94,5.02s-1.05,4.43-1.05,7.21.35,5.18,1.05,7.21c.7,2.03,1.68,3.7,2.94,5.02,1.26,1.32,2.73,2.3,4.42,2.94,1.69.64,3.51.95,5.45.95s3.81-.32,5.5-.95c1.69-.64,3.16-1.61,4.42-2.94,1.25-1.32,2.23-3,2.94-5.02.7-2.03,1.05-4.43,1.05-7.21Z"/>
    <path class="cls-1" d="m263.85,131.49c-.87,0-1.78,0-2.74.03-.95.02-1.91.05-2.86.1-.95.05-1.88.11-2.76.18-.89.07-1.68.15-2.39.25.17-.6.25-1.14.25-1.61,0-.37-.08-.89-.25-1.56,2.21.07,4.37.13,6.48.18s4.27.08,6.48.08,4.37-.02,6.48-.08,4.27-.11,6.48-.18c-.17.67-.25,1.21-.25,1.61,0,.44.08.95.25,1.56-.7-.1-1.5-.18-2.39-.25-.89-.07-1.81-.13-2.76-.18-.95-.05-1.91-.08-2.86-.1-.96-.02-1.87-.03-2.74-.03-.1,3.45-.15,6.91-.15,10.4v8.64c0,2.21.04,4.39.13,6.53.08,2.14.18,4.25.28,6.33-.77-.07-1.59-.1-2.46-.1s-1.69.03-2.46.1c.1-2.08.19-4.19.28-6.33.08-2.14.12-4.32.12-6.53v-8.64c0-3.48-.05-6.95-.15-10.4Z"/>
    <path class="cls-1" d="m284.82,135.31c-.08-2.14-.18-4.29-.28-6.43,1.51.07,3,.13,4.5.18,1.49.05,2.99.08,4.5.08s3-.02,4.47-.08c1.47-.05,2.96-.11,4.47-.18-.1.5-.15,1-.15,1.51s.05,1,.15,1.51c-1.07-.07-2.05-.13-2.94-.2-.89-.07-1.83-.13-2.81-.2-.99-.07-2.07-.13-3.24-.18s-2.58-.08-4.22-.08c-.03,1.07-.08,2.09-.12,3.06-.05.97-.08,2.08-.08,3.31,0,1.31,0,2.58.03,3.82.02,1.24.03,2.18.03,2.81,1.47,0,2.79-.02,3.97-.05,1.17-.03,2.24-.08,3.21-.13.97-.05,1.87-.1,2.69-.15.82-.05,1.6-.11,2.33-.18-.1.5-.15,1.02-.15,1.56,0,.5.05,1,.15,1.51-.87-.1-1.88-.18-3.04-.25-1.16-.07-2.31-.11-3.47-.13-1.16-.02-2.24-.03-3.26-.05-1.02-.02-1.83-.03-2.44-.03,0,.3,0,.63-.03.98-.02.35-.03.8-.03,1.33v4.97c0,1.91,0,3.48.03,4.72.02,1.24.04,2.18.08,2.81h3.52c1.27,0,2.52-.02,3.74-.08,1.22-.05,2.38-.12,3.46-.2,1.09-.08,2.03-.21,2.84-.38-.07.23-.11.49-.13.78-.02.29-.02.54-.02.78,0,.54.05.97.15,1.31-1.51-.07-3.01-.1-4.5-.1h-9.12c-1.51,0-3.03.03-4.57.1.1-2.14.19-4.28.28-6.4.08-2.13.12-4.29.12-6.5v-8.64c0-2.21-.04-4.39-.12-6.53Z"/>
    <path class="cls-1" d="m334.59,162.21c-.65.32-1.44.6-2.36.85-.92.25-1.95.48-3.09.68-1.14.2-2.33.3-3.57.3-2.65,0-5.09-.38-7.33-1.13-2.24-.75-4.18-1.9-5.8-3.44-1.62-1.54-2.9-3.42-3.82-5.65-.92-2.23-1.38-4.76-1.38-7.61s.46-5.38,1.38-7.61c.92-2.23,2.21-4.11,3.87-5.65,1.66-1.54,3.64-2.71,5.95-3.52,2.31-.8,4.85-1.21,7.63-1.21,2.21,0,4.23.23,6.05.68,1.82.45,3.44,1,4.85,1.63-.27.47-.49,1.1-.65,1.91-.17.8-.3,1.47-.4,2.01l-.3.1c-.33-.4-.8-.85-1.41-1.36-.6-.5-1.31-.99-2.11-1.46-.8-.47-1.71-.86-2.71-1.18-1-.32-2.11-.48-3.32-.48-1.98,0-3.81.32-5.5.95-1.69.64-3.16,1.62-4.42,2.94-1.25,1.32-2.23,3-2.94,5.02s-1.05,4.43-1.05,7.21.35,5.18,1.05,7.21c.7,2.03,1.68,3.7,2.94,5.02,1.26,1.32,2.73,2.3,4.42,2.94,1.69.64,3.52.95,5.5.95,1.21,0,2.32-.15,3.34-.45s1.96-.66,2.81-1.08c.85-.42,1.62-.87,2.31-1.36.69-.48,1.26-.91,1.73-1.28l.2.2-.45,2.96c-.3.27-.78.56-1.43.88Z"/>
    <path class="cls-1" d="m368.54,135.39c-.08-2.13-.18-4.29-.28-6.5.43.07.85.13,1.26.18.4.05.8.08,1.21.08s.8-.02,1.21-.08c.4-.05.82-.11,1.26-.18-.1,2.21-.19,4.38-.28,6.5-.08,2.13-.12,4.29-.12,6.5v8.64c0,2.21.04,4.39.12,6.53.08,2.14.18,4.25.28,6.33-.77-.07-1.59-.1-2.46-.1s-1.69.03-2.46.1c.1-2.08.19-4.19.28-6.33.08-2.14.13-4.32.13-6.53v-4.52c-1.81-.03-3.56-.06-5.25-.08-1.69-.02-3.44-.03-5.25-.03s-3.56,0-5.25.03c-1.69.02-3.44.04-5.25.08v4.52c0,2.21.04,4.39.13,6.53.08,2.14.18,4.25.28,6.33-.77-.07-1.59-.1-2.46-.1s-1.69.03-2.46.1c.1-2.08.19-4.19.28-6.33.08-2.14.12-4.32.12-6.53v-8.64c0-2.21-.04-4.38-.12-6.5-.08-2.13-.18-4.29-.28-6.5.43.07.85.13,1.26.18.4.05.8.08,1.21.08s.8-.02,1.21-.08c.4-.05.82-.11,1.26-.18-.1,2.21-.19,4.38-.28,6.5-.08,2.13-.13,4.29-.13,6.5v1.76c1.81.03,3.56.07,5.25.1,1.69.03,3.44.05,5.25.05s3.56-.02,5.25-.05c1.69-.03,3.44-.07,5.25-.1v-1.76c0-2.21-.04-4.38-.13-6.5Z"/>
    <path class="cls-1" d="m398.6,150.35c-4.35-4.67-8.71-9.32-13.06-13.94-.03.94-.07,2.19-.1,3.77-.03,1.57-.05,3.72-.05,6.43,0,.7,0,1.57.03,2.61.02,1.04.03,2.13.05,3.26.02,1.14.04,2.29.08,3.47.03,1.17.07,2.26.1,3.26.03,1,.07,1.88.1,2.64.03.75.07,1.26.1,1.53-.54-.07-1.12-.1-1.76-.1-.67,0-1.29.03-1.86.1.07-.33.14-.95.23-1.86.08-.9.16-1.98.23-3.24.07-1.26.14-2.62.23-4.09.08-1.47.15-2.95.2-4.42.05-1.47.09-2.91.13-4.32.03-1.41.05-2.66.05-3.77,0-3.21,0-5.98-.02-8.29-.02-2.31-.06-4.03-.13-5.17h.8c2.04,2.21,4.23,4.58,6.55,7.11,2.33,2.53,4.64,5.02,6.93,7.48,2.29,2.46,4.47,4.79,6.53,6.98,2.06,2.19,3.86,4.06,5.4,5.6v-6.83c0-3.52-.03-6.94-.08-10.27-.05-3.33-.16-6.47-.33-9.42.67.17,1.24.25,1.71.25.4,0,.94-.08,1.61-.25-.07.74-.14,1.84-.23,3.31-.08,1.47-.17,3.05-.25,4.72-.08,1.67-.16,3.31-.23,4.92-.07,1.61-.1,2.9-.1,3.87v3.01c0,1.14,0,2.33.03,3.57.02,1.24.03,2.49.05,3.74.02,1.26.03,2.43.05,3.52.02,1.09.03,2.03.03,2.84v1.66h-.7c-3.85-4.45-7.95-9.02-12.3-13.69Z"/>
    <path class="cls-1" d="m421.58,135.39c-.08-2.13-.18-4.29-.28-6.5.43.07.85.13,1.26.18.4.05.8.08,1.21.08s.8-.02,1.21-.08c.4-.05.82-.11,1.26-.18-.1,2.21-.19,4.38-.28,6.5-.08,2.13-.13,4.29-.13,6.5v8.64c0,2.21.04,4.39.13,6.53.08,2.14.18,4.25.28,6.33-.77-.07-1.59-.1-2.46-.1s-1.69.03-2.46.1c.1-2.08.19-4.19.28-6.33.08-2.14.12-4.32.12-6.53v-8.64c0-2.21-.04-4.38-.12-6.5Z"/>
    <path class="cls-1" d="m460.2,162.21c-.65.32-1.44.6-2.36.85s-1.95.48-3.09.68c-1.14.2-2.33.3-3.57.3-2.65,0-5.09-.38-7.33-1.13-2.24-.75-4.18-1.9-5.8-3.44-1.62-1.54-2.9-3.42-3.82-5.65-.92-2.23-1.38-4.76-1.38-7.61s.46-5.38,1.38-7.61c.92-2.23,2.21-4.11,3.87-5.65,1.66-1.54,3.64-2.71,5.95-3.52s4.85-1.21,7.63-1.21c2.21,0,4.23.23,6.05.68,1.82.45,3.44,1,4.85,1.63-.27.47-.49,1.1-.65,1.91-.17.8-.3,1.47-.4,2.01l-.3.1c-.33-.4-.8-.85-1.41-1.36-.6-.5-1.31-.99-2.11-1.46-.8-.47-1.71-.86-2.71-1.18-1-.32-2.11-.48-3.31-.48-1.98,0-3.81.32-5.5.95-1.69.64-3.16,1.62-4.42,2.94-1.26,1.32-2.24,3-2.94,5.02s-1.05,4.43-1.05,7.21.35,5.18,1.05,7.21c.7,2.03,1.68,3.7,2.94,5.02,1.26,1.32,2.73,2.3,4.42,2.94,1.69.64,3.52.95,5.5.95,1.21,0,2.32-.15,3.34-.45,1.02-.3,1.96-.66,2.81-1.08.85-.42,1.62-.87,2.31-1.36.69-.48,1.26-.91,1.73-1.28l.2.2-.45,2.96c-.3.27-.78.56-1.43.88Z"/>
    <path class="cls-1" d="m469.14,158.69c.45.62,1,1.18,1.66,1.68.65.5,1.41.91,2.29,1.23.87.32,1.84.48,2.91.48s2.1-.19,2.99-.58c.89-.38,1.64-.9,2.26-1.56s1.1-1.42,1.43-2.31c.33-.89.5-1.83.5-2.84,0-1.54-.39-2.76-1.18-3.67-.79-.9-1.77-1.66-2.94-2.26s-2.44-1.16-3.79-1.66c-1.36-.5-2.62-1.13-3.79-1.88-1.17-.75-2.15-1.72-2.94-2.89-.79-1.17-1.18-2.75-1.18-4.72,0-1.41.25-2.69.75-3.84.5-1.16,1.23-2.15,2.18-2.99.95-.84,2.1-1.49,3.44-1.96,1.34-.47,2.85-.7,4.52-.7s3,.19,4.17.58c1.17.39,2.26.98,3.26,1.78-.3.57-.55,1.17-.75,1.81-.2.64-.4,1.44-.6,2.41h-.6c-.17-.47-.39-.98-.68-1.53-.29-.55-.67-1.06-1.16-1.53-.49-.47-1.06-.86-1.73-1.18-.67-.32-1.47-.48-2.41-.48s-1.8.15-2.59.45-1.47.73-2.06,1.28c-.59.55-1.04,1.21-1.36,1.98-.32.77-.48,1.61-.48,2.51,0,1.57.39,2.81,1.18,3.72.79.9,1.77,1.67,2.94,2.29,1.17.62,2.44,1.17,3.79,1.66,1.36.49,2.62,1.08,3.79,1.78,1.17.7,2.15,1.61,2.94,2.71.79,1.1,1.18,2.58,1.18,4.42,0,1.54-.28,3-.83,4.37-.55,1.37-1.36,2.57-2.41,3.59-1.05,1.02-2.34,1.81-3.87,2.36-1.52.55-3.26.83-5.2.83-2.08,0-3.76-.28-5.05-.83-1.29-.55-2.37-1.18-3.24-1.88.3-.77.51-1.46.63-2.08.12-.62.23-1.41.33-2.39h.6c.27.6.63,1.21,1.08,1.83Z"/>
  </g>
  <g>
    <path class="cls-1" d="m71.93,88.04C97.28,39.19,148.34,5.73,207.07,5.73c70.38,0,129.74,48.04,147.04,113.04h2.97C339.72,52.16,279.05,2.86,207.07,2.86c-60.37,0-112.78,34.69-138.37,85.18h3.22Z"/>
    <path class="cls-1" d="m341.21,235.48c11.09-19.09,18.22-40.75,20.26-63.85h-2.88c-2.08,23.16-9.38,44.83-20.7,63.85h3.32Z"/>
  </g>
  <rect class="cls-2" x="110.35" y="181.85" width="375.82" height="2.87"/>
  <rect class="cls-2" x="231.34" y="209.25" width="254.83" height="2.87"/>
  <rect class="cls-2" x="298.26" y="195.55" width="187.91" height="2.87"/>
</svg>