<svg xmlns="http://www.w3.org/2000/svg" viewBox="0 0 800 800"><defs><style>.a{fill:#fff;}</style></defs><path class="a" d="M220.45,312.55A105.66,105.66,0,1,0,326.11,418.2,105.77,105.77,0,0,0,220.45,312.55Zm0,164.35a58.7,58.7,0,1,1,58.7-58.7A58.76,58.76,0,0,1,220.45,476.9Z"/><path class="a" d="M541.34,93.4A105.66,105.66,0,1,0,647,199.06,105.78,105.78,0,0,0,541.34,93.4Zm0,164.36a58.7,58.7,0,1,1,58.7-58.7A58.76,58.76,0,0,1,541.34,257.76Z"/><path class="a" d="M541.34,523.86A105.66,105.66,0,1,0,647,629.52,105.78,105.78,0,0,0,541.34,523.86Zm0,164.36a58.7,58.7,0,1,1,58.7-58.7A58.76,58.76,0,0,1,541.34,688.22Z"/><rect class="a" x="267.38" y="289.5" width="234.89" height="46.96" transform="translate(-108.28 259.17) rotate(-32.89)"/><rect class="a" x="358.58" y="409.98" width="46.96" height="228.6" transform="translate(-265.71 559.33) rotate(-57.02)"/></svg>