<svg xmlns="http://www.w3.org/2000/svg" viewBox="0 0 800 800"><defs><style>.a{fill:#0e1b2c;}</style></defs><path class="a" d="M611.22,597H176.86a119.67,119.67,0,0,1-84.3-34.57,116.93,116.93,0,0,1-2.44-165.35c.8-.82,1.61-1.64,2.44-2.44a119.79,119.79,0,0,1,64.57-32.95v-1.62c0-87.09,70.86-157.95,158-157.95a156.38,156.38,0,0,1,89.76,28.12A158.14,158.14,0,0,1,450.35,279a118.42,118.42,0,0,1,179.19,82.46,119.86,119.86,0,0,1,66,33.18A116.93,116.93,0,0,1,698,560c-.8.82-1.61,1.64-2.44,2.44A119.72,119.72,0,0,1,611.22,597ZM176.75,399.56c-44.27,0-80.29,35.43-80.29,79s36,79,80.29,79H611.12c44.27,0,80.29-35.43,80.29-79s-36-79-80.29-79H591.38V381c0-41.11-33.51-77.76-74.56-80a78.54,78.54,0,0,0-59.7,22.57L435.87,344.4l-10.94-27.71A118.3,118.3,0,0,0,196.5,360.07a107.81,107.81,0,0,0,1.5,15l3.54,24.51Z"/></svg>