<svg xmlns="http://www.w3.org/2000/svg" xmlns:xlink="http://www.w3.org/1999/xlink" viewBox="0 0 219 56"><defs><style>.a{fill:#0e1b2c;}.b{fill:url(#a);}</style><linearGradient id="a" x1="13.88" y1="39.61" x2="72.91" y2="6.88" gradientUnits="userSpaceOnUse"><stop offset="0" stop-color="#00a0db"/><stop offset="0.2" stop-color="#362983"/><stop offset="0.4" stop-color="#e4007d"/><stop offset="0.6" stop-color="#e31f21"/><stop offset="0.8" stop-color="#ffe900"/><stop offset="1" stop-color="#009447"/></linearGradient></defs><path class="a" d="M53,39.73c2.7,2,5.16,3.12,7.68,3.12s3.78-1,3.78-2.52c0-2-3-2.88-6.06-4.08-3.6-1.38-7.86-3.84-7.86-8.76,0-5.52,4.5-9.3,11.4-9.3A17.14,17.14,0,0,1,72.42,22l-4,5.28c-2.17-1.56-4.21-2.52-6.3-2.52-2.28,0-3.36.84-3.36,2.34,0,1.92,2.76,2.64,5.82,3.78,3.78,1.38,8,3.48,8,8.94s-4.26,9.6-12.24,9.6A19.21,19.21,0,0,1,49,45.25Z"/><path class="a" d="M78.23,18.91h7.2l.6,3.84h.24c2.46-2.46,5.1-4.56,9-4.56,4.2,0,6.72,1.8,8.22,5,2.64-2.7,5.4-5,9.36-5,6.42,0,9.3,4.56,9.3,12V48.67h-8.82V31.33c0-4.32-1.14-5.64-3.66-5.64-1.5,0-3.18,1-5.1,2.88v20.1H95.75V31.33c0-4.32-1.14-5.64-3.66-5.64-1.44,0-3.18,1-5,2.88v20.1H78.23Z"/><path class="a" d="M142.43,18.19c7.5,0,14.46,5.7,14.46,15.6s-7,15.6-14.46,15.6-14.51-5.7-14.51-15.6S134.87,18.19,142.43,18.19Zm0,24.06c3.6,0,5.46-3.3,5.46-8.46s-1.86-8.46-5.46-8.46S137,28.63,137,33.79,138.77,42.25,142.43,42.25Z"/><path class="a" d="M175.73,18.19c7.5,0,14.46,5.7,14.46,15.6s-7,15.6-14.46,15.6-14.52-5.7-14.52-15.6S168.17,18.19,175.73,18.19Zm0,24.06c3.6,0,5.46-3.3,5.46-8.46s-1.86-8.46-5.46-8.46-5.46,3.3-5.46,8.46S172.07,42.25,175.73,42.25Z"/><path class="a" d="M196.25,6.61h8.82V39.79c0,1.86.84,2.46,1.56,2.46a3.7,3.7,0,0,0,1.08-.12l1.08,6.54a11.5,11.5,0,0,1-4.44.72c-6.06,0-8.1-4-8.1-10Z"/><circle class="b" cx="26.71" cy="32.5" r="16.5"/></svg>