<svg xmlns="http://www.w3.org/2000/svg" viewBox="0 0 215.74 110.85"><defs><style>.a{fill:#fff;}</style></defs><path class="a" d="M46.81,76.18V92.67h-4V82.36L39.22,92.67H35.74L32.15,82.34V92.67h-4V76.18h4.91L37.5,87.67l4.39-11.49Z"/><path class="a" d="M66.5,76.9a8,8,0,0,1,3,3,8.63,8.63,0,0,1,1.11,4.38,8.77,8.77,0,0,1-1.11,4.39,8,8,0,0,1-3,3,8.81,8.81,0,0,1-8.48,0,8.07,8.07,0,0,1-3-3,8.78,8.78,0,0,1-1.11-4.4A8.63,8.63,0,0,1,55,79.89a8.15,8.15,0,0,1,3-3,8.74,8.74,0,0,1,8.5,0Zm-7.4,3.92a5.82,5.82,0,0,0,0,7,4.44,4.44,0,0,0,6.26,0,5.87,5.87,0,0,0,0-7,4.43,4.43,0,0,0-6.24,0Z"/><path class="a" d="M81.5,76.06v9.61a3.76,3.76,0,0,0,.74,2.51,3.09,3.09,0,0,0,4.3,0,3.72,3.72,0,0,0,.76-2.51V76.06h4v9.61a8,8,0,0,1-.92,4,6,6,0,0,1-2.5,2.42,7.83,7.83,0,0,1-3.59.81,7.54,7.54,0,0,1-3.52-.8,5.75,5.75,0,0,1-2.38-2.43,8.28,8.28,0,0,1-.89-4V76.06Z"/><path class="a" d="M113.5,92.67h-4l-6.72-10.2v10.2h-4V76.06h4l6.72,10.3V76.06h4Z"/><path class="a" d="M133,76.06v3.2h-4.51V92.67h-4V79.26H120v-3.2Z"/><path class="a" d="M149.68,89.67H143.5l-1,3h-4.23l6.09-16.5H149l6,16.5h-4.28Zm-1-3.06-2.07-6.11-2.11,6.09Z"/><path class="a" d="M165.31,76.06V92.67h-4V76.06Z"/><path class="a" d="M187.59,92.67h-4l-6.72-10.2v10.2h-4V76.06h4l6.72,10.3V76.06h4Z"/><polygon class="a" points="109.07 60.97 69.64 60.97 89.35 31.89 109.07 60.97"/><polygon class="a" points="113.81 60.97 151.91 60.97 123.11 18.48 104.06 46.58 113.81 60.97"/><circle class="a" cx="103.28" cy="23.74" r="5.79"/></svg>