<svg xmlns="http://www.w3.org/2000/svg" xmlns:xlink="http://www.w3.org/1999/xlink" viewBox="0 0 111.33 117.33"><defs><style>.a{fill:#3f3f69;}.b{fill:url(#a);}.c{fill:url(#b);}</style><linearGradient id="a" x1="297.9" y1="-422.88" x2="323.39" y2="-379.54" gradientTransform="translate(345.62 -348.03) rotate(180)" gradientUnits="userSpaceOnUse"><stop offset="0.17" stop-color="#4674b3"/><stop offset="0.33" stop-color="#4878b3"/><stop offset="0.5" stop-color="#4f84b4"/><stop offset="0.66" stop-color="#5998b4"/><stop offset="0.83" stop-color="#69b4b6"/><stop offset="0.99" stop-color="#7cd8b7"/><stop offset="1" stop-color="#7ddab7"/></linearGradient><linearGradient id="b" x1="252.19" y1="-367.76" x2="292.44" y2="-437.84" xlink:href="#a"/></defs><path class="a" d="M51.53,41.93A13.38,13.38,0,0,1,64.91,28.55H88.62A13.38,13.38,0,0,1,102,41.93h0A13.39,13.39,0,0,1,88.62,55.32H64.91A13.39,13.39,0,0,1,51.53,41.93Z"/><path class="b" d="M21.41,30.39a13.4,13.4,0,0,0-4.73,18.33L28.59,68.49a13.39,13.39,0,0,0,18.33,4.73h0A13.39,13.39,0,0,0,51.65,54.9L39.74,35.12a13.39,13.39,0,0,0-18.33-4.73Z"/><path class="c" d="M52,105a13.38,13.38,0,0,0,18.33-4.73l30.4-51.55A13.38,13.38,0,0,0,88.53,28.55H65.45c-.34,0-.69,0-1,.05h.81C82.72,28.6,73,43,73,43h0L47.22,86.68A13.38,13.38,0,0,0,52,105Z"/></svg>