<svg xmlns="http://www.w3.org/2000/svg" viewBox="0 0 800 800"><defs><style>.a{fill:#fff;}</style></defs><path class="a" d="M611.22,597H176.86a119.69,119.69,0,0,1-84.3-34.57,116.93,116.93,0,0,1,0-167.79,119.83,119.83,0,0,1,64.57-32.95c0-.54,0-1.08,0-1.62,0-87.09,70.86-157.95,158-157.95a156.37,156.37,0,0,1,89.76,28.12A158.09,158.09,0,0,1,450.35,279a118.42,118.42,0,0,1,179.19,82.46,119.84,119.84,0,0,1,66,33.18,116.93,116.93,0,0,1,0,167.79A119.71,119.71,0,0,1,611.22,597ZM176.75,399.56c-44.27,0-80.29,35.43-80.29,79s36,79,80.29,79H611.12c44.27,0,80.29-35.43,80.29-79s-36-79-80.29-79H591.38V381c0-41.11-33.51-77.76-74.56-80a78.54,78.54,0,0,0-59.7,22.57L435.87,344.4l-10.94-27.71c-18-45.61-61.19-75.08-110-75.08A118.59,118.59,0,0,0,196.5,360.07a107.41,107.41,0,0,0,1.5,15l3.54,24.51Z"/></svg>