<svg xmlns="http://www.w3.org/2000/svg" viewBox="0 0 215.74 110.85"><defs><style>.a{fill:#fff;}</style></defs><path class="a" d="M71.93,45.66a.88.88,0,0,1-.63.89L54.1,52.11c-3.58,1.13-7.17,2.09-10.66,3v.17c3.41.88,6.9,1.75,10.75,3.06l17,5.56a.92.92,0,0,1,.63.91c-.09,1.6-.21,3.19-.36,4.78a1.48,1.48,0,0,1-1.6,1.35,1.44,1.44,0,0,1-.4-.09L31.19,57.28a2.18,2.18,0,0,1,0-4.11l38.5-13.38a1.48,1.48,0,0,1,1.91.86,1.57,1.57,0,0,1,.09.43C71.79,42.6,71.87,44.13,71.93,45.66Z"/><path class="a" d="M78.68,67.5a.9.9,0,0,1,.95-.84.85.85,0,0,1,.23,0l8.36,2.74A10.87,10.87,0,0,1,95.6,79.73v.34l-16.39-5.8a1.48,1.48,0,0,1-1-1.54C78.41,71,78.55,69.25,78.68,67.5Z"/><path class="a" d="M59.63,69.25h0a.61.61,0,0,1,.4.52C61.18,81.69,63.7,90,66.63,90c4,0,7.24-15.48,7.24-34.56s-3.24-34.56-7.24-34.56c-2.91,0-5.42,8.18-6.57,20a.64.64,0,0,1-.41.52h0a.62.62,0,0,1-.76-.44,1.23,1.23,0,0,1,0-.19c1.28-17.57,4.77-30.19,8.89-30.19,5.2,0,9.41,20.09,9.41,44.87s-4.3,44.86-9.46,44.86c-4.13,0-7.64-12.72-8.91-30.41a.63.63,0,0,1,.6-.66A.45.45,0,0,1,59.63,69.25Z"/><path class="a" d="M95.6,30.79a10.88,10.88,0,0,1-7.47,10.33l-8.26,2.65a.89.89,0,0,1-1.13-.57,1,1,0,0,1,0-.23c-.11-1.66-.25-3.32-.41-5a1.48,1.48,0,0,1,1-1.55Z"/><path class="a" d="M98.87,47.92a7.43,7.43,0,0,1,2.59,4.43H97.33a3.82,3.82,0,0,0-1.4-1.75A3.91,3.91,0,0,0,93.68,50a3.46,3.46,0,0,0-2.76,1.25,5.87,5.87,0,0,0,0,6.7,3.45,3.45,0,0,0,2.76,1.24,3.77,3.77,0,0,0,3.65-2.37h4.13a7.45,7.45,0,0,1-2.59,4.31,7.82,7.82,0,0,1-5.1,1.64,8,8,0,0,1-4.13-1,7,7,0,0,1-2.77-2.95,9.88,9.88,0,0,1,0-8.53,7,7,0,0,1,2.75-2.9,8,8,0,0,1,4.13-1A7.9,7.9,0,0,1,98.87,47.92Z"/><path class="a" d="M112.15,46.46V62.59h-3.9V46.46Z"/><path class="a" d="M127.73,62.59l-3.49-6.09h-.89v6.09h-3.9V46.46h6.66a7.22,7.22,0,0,1,3.24.66,4.69,4.69,0,0,1,2,1.82,5.14,5.14,0,0,1,.66,2.63,4.72,4.72,0,0,1-1,3,5,5,0,0,1-2.82,1.69L132,62.6Zm-4.38-8.76h2.42a2.43,2.43,0,0,0,1.71-.51,2.07,2.07,0,0,0-1.7-3.55h-2.42Z"/><path class="a" d="M151,47.92a7.33,7.33,0,0,1,2.61,4.43h-4.13a3.76,3.76,0,0,0-1.4-1.75,3.91,3.91,0,0,0-2.25-.64,3.46,3.46,0,0,0-2.76,1.25,5.94,5.94,0,0,0,0,6.7,3.44,3.44,0,0,0,2.77,1.19,3.91,3.91,0,0,0,2.25-.64,3.77,3.77,0,0,0,1.4-1.73h4.13A7.34,7.34,0,0,1,151,61.09a7.82,7.82,0,0,1-5.1,1.64,8,8,0,0,1-4.13-1,6.93,6.93,0,0,1-2.74-2.91,9.88,9.88,0,0,1,0-8.53,7,7,0,0,1,2.73-2.94,8,8,0,0,1,4.13-1A7.91,7.91,0,0,1,151,47.92Z"/><path class="a" d="M164.34,59.6h5.2v3h-9.1V46.46h3.9Z"/><path class="a" d="M179.87,49.57v3.37h5.45v2.94h-5.45v3.58H186v3.13H176V46.46h10v3.11Z"/></svg>