<svg xmlns="http://www.w3.org/2000/svg" viewBox="0 0 215.74 110.85"><defs><style>.a{fill:#0e1b2c;}</style></defs><path class="a" d="M102.66,57.57a10.14,10.14,0,0,1-4.07-3.83,11.2,11.2,0,0,1,0-11.12,10.14,10.14,0,0,1,4.07-3.83,12.23,12.23,0,0,1,5.84-1.38,12.51,12.51,0,0,1,5.12,1,9.9,9.9,0,0,1,3.79,2.9l-3.73,3.37A6.25,6.25,0,0,0,105.79,43a5.16,5.16,0,0,0-2,2.09,7,7,0,0,0,0,6.18,5,5,0,0,0,2,2.09,6.24,6.24,0,0,0,7.89-1.69L117.41,55a9.9,9.9,0,0,1-3.79,2.9,12.51,12.51,0,0,1-5.12,1A12.21,12.21,0,0,1,102.66,57.57Z"/><path class="a" d="M122.15,56.44a9.52,9.52,0,0,1-2.56-7.14V37.83h5.86v11.3q0,5,3.93,5c2.6,0,3.91-1.66,3.91-5V37.83h5.77V49.3a9.6,9.6,0,0,1-2.56,7.14,11.5,11.5,0,0,1-14.35,0Z"/><path class="a" d="M161.72,49.68a5.06,5.06,0,0,1,1,3.18,4.78,4.78,0,0,1-2.19,4.2,11.33,11.33,0,0,1-6.34,1.48H143V37.83h10.59a10.45,10.45,0,0,1,6,1.46,4.61,4.61,0,0,1,2.07,4,4.84,4.84,0,0,1-.73,2.65,5,5,0,0,1-2.05,1.85A5.75,5.75,0,0,1,161.72,49.68Zm-12.9-7.62v4h4c2,0,3-.67,3-2s-1-2-3-2Zm8,10.14c0-1.4-1-2.1-3.08-2.1h-4.91v4.21h4.91c2,0,3.07-.71,3.07-2.11Z"/><path class="a" d="M182.4,54v4.53H165.77V37.83H182v4.52H171.57v3.49h9.2v4.38h-9.2V54Z"/><path class="a" d="M107.2,72.84V73h-4.9V65.66h4.75v.2h-4.54v3.33h4.06v.2h-4.06v3.45Z"/><path class="a" d="M115.12,65.66V73H115l-5.41-7v7h-.21V65.66h.18l5.4,7v-7Z"/><path class="a" d="M123.3,69.42h.2v2.7a3.12,3.12,0,0,1-1.12.7,4,4,0,0,1-1.42.25,3.9,3.9,0,0,1-1.95-.49,3.5,3.5,0,0,1-1.37-1.33,4,4,0,0,1,0-3.8A3.48,3.48,0,0,1,119,66.12a3.9,3.9,0,0,1,2-.49,4.08,4.08,0,0,1,1.42.24,3.12,3.12,0,0,1,1.12.7l-.13.15a3.31,3.31,0,0,0-2.41-.89,3.81,3.81,0,0,0-1.84.46,3.45,3.45,0,0,0-1.76,3.06,3.37,3.37,0,0,0,.47,1.78,3.42,3.42,0,0,0,1.29,1.27,3.71,3.71,0,0,0,1.84.47A3.29,3.29,0,0,0,123.3,72Z"/><path class="a" d="M126.08,65.66h.21V73h-.21Z"/><path class="a" d="M134.88,65.66V73h-.18l-5.4-7v7h-.21V65.66h.18l5.4,7v-7Z"/><path class="a" d="M142.59,72.84V73h-4.91V65.66h4.75v.2h-4.54v3.33H142v.2h-4.07v3.45Z"/><path class="a" d="M149.63,72.84V73h-4.91V65.66h4.75v.2h-4.54v3.33H149v.2h-4.07v3.45Z"/><path class="a" d="M157,73l-1.88-2.61a4.11,4.11,0,0,1-.86.08H152V73h-.21V65.66h2.49a3.2,3.2,0,0,1,2.13.64,2.48,2.48,0,0,1,.29,3.26,2.45,2.45,0,0,1-1.33.82L157.25,73Zm-2.72-2.73a3,3,0,0,0,2-.58,2.31,2.31,0,0,0,0-3.27l0,0a3,3,0,0,0-2-.58H152v4.45Z"/><path class="a" d="M159.3,65.66h.21V73h-.21Z"/><path class="a" d="M168.1,65.66V73h-.18l-5.4-7v7h-.21V65.66h.18l5.4,7v-7Z"/><path class="a" d="M176.27,69.42h.2v2.7a3.12,3.12,0,0,1-1.12.7,4.13,4.13,0,0,1-3.37-.24,3.48,3.48,0,0,1-1.36-1.33,3.84,3.84,0,0,1,0-3.8A3.53,3.53,0,0,1,172,66.12a3.88,3.88,0,0,1,2-.49,4.32,4.32,0,0,1,1.42.24,3,3,0,0,1,1.11.7l-.12.15a3.31,3.31,0,0,0-2.41-.89,3.7,3.7,0,0,0-1.84.46,3.45,3.45,0,0,0-1.3,1.27,3.6,3.6,0,0,0-.47,1.79,3.49,3.49,0,0,0,.47,1.78,3.45,3.45,0,0,0,1.3,1.27,3.71,3.71,0,0,0,1.84.47,3.27,3.27,0,0,0,2.33-.83Z"/><polygon class="a" points="63.51 32.55 63.53 32.54 63.53 20.58 63.51 20.58 63.51 32.54 63.51 32.55"/><polygon class="a" points="63.53 78.31 63.52 78.3 63.52 78.31 49.75 70.36 43.7 66.87 43.7 66.86 43.7 66.87 33.35 72.84 33.35 72.85 63.53 90.27 93.72 72.85 83.35 66.87 63.53 78.31"/><polygon class="a" points="83.35 43.98 83.35 66.87 93.72 72.85 93.72 38 63.53 20.58 63.53 32.54 83.35 43.98"/><polygon class="a" points="33.35 72.84 43.7 66.87 43.7 66.86 43.7 43.98 63.51 32.55 63.51 32.54 63.51 20.58 63.51 20.58 33.34 38 33.34 72.85 33.35 72.84"/><polygon class="a" points="54.54 65.17 50.59 62.89 50.59 47.95 63.52 55.42 63.52 70.36 63.53 70.36 63.53 55.42 76.46 47.95 63.53 40.49 63.52 40.5 50.59 47.95 50.59 62.89 50.59 62.89 54.54 65.17"/><polygon class="a" points="63.53 55.42 63.53 70.36 76.46 62.89 76.46 47.95 63.53 55.42"/><polygon class="a" points="50.59 47.95 50.59 62.89 54.54 65.17 63.52 70.36 63.52 70.36 63.52 55.42 50.59 47.95"/></svg>