<svg xmlns="http://www.w3.org/2000/svg" xmlns:xlink="http://www.w3.org/1999/xlink" viewBox="0 0 111.33 117.33"><defs><style>.a{fill:#3f3f69;}.b{fill:url(#a);}.c{fill:url(#b);}</style><linearGradient id="a" x1="61.17" y1="34.9" x2="24.24" y2="-24.13" gradientUnits="userSpaceOnUse"><stop offset="0.17" stop-color="#9dc44d"/><stop offset="0.39" stop-color="#a1c64c"/><stop offset="0.6" stop-color="#adcb49"/><stop offset="0.82" stop-color="#c1d344"/><stop offset="1" stop-color="#d7dd3f"/></linearGradient><linearGradient id="b" x1="8.67" y1="73.05" x2="102.67" y2="73.05" xlink:href="#a"/></defs><path class="a" d="M63.3,12.8a13.51,13.51,0,0,0-18.59,4.44L14.07,70.55c5.15,2.51,10,5.67,15.24,8A101.22,101.22,0,0,1,39.53,75.3a8.28,8.28,0,0,1,3.07-.13L67.77,31.39A13.52,13.52,0,0,0,63.3,12.8Z"/><path class="b" d="M86.46,70.45c2.68-1.25,5.49-2.76,8.36-4.2l-27-49A13.53,13.53,0,1,0,44.48,31L70,77.17C75.21,74.44,81.44,72.79,86.46,70.45Z"/><path class="c" d="M89.71,100.74A13,13,0,0,1,77.07,90.11a22.22,22.22,0,0,0-21.48-18A22,22,0,0,0,34.21,89.65a12.92,12.92,0,0,1-15.52,10A13.4,13.4,0,0,1,9,83.61c5.05-22.52,24.21-38.25,46.59-38.25s42.18,16.51,46.8,39.26a13.38,13.38,0,0,1-10,15.84A12.75,12.75,0,0,1,89.71,100.74Z"/><path class="a" d="M67.89,94.6A12.12,12.12,0,1,1,55.77,82.48,12.12,12.12,0,0,1,67.89,94.6Z"/></svg>