<svg xmlns="http://www.w3.org/2000/svg" viewBox="0 0 422.14 422.14"><defs><style>.a{fill:#de3ad7;}</style></defs><path class="a" d="M307.84,187.87h-.66V171.63a94.45,94.45,0,0,0-188.9,0v16.24h-4c-14.59,0-25.85,12.93-25.85,27.84v41.42A26.18,26.18,0,0,0,114,284h24.87a6.3,6.3,0,0,0,6-6.59,2.31,2.31,0,0,0,0-.37V195.83c0-4-2.32-8-6-8h-7.29V171.63a81.19,81.19,0,0,1,162.38,0v16.24h-7.29c-3.64,0-6,4-6,8V277a6.29,6.29,0,0,0,5.59,6.93l.37,0h7.63l-.67,1a52.34,52.34,0,0,1-42.09,20.88A32.78,32.78,0,1,0,219.69,345a34.08,34.08,0,0,0,23.86-10.27,29.17,29.17,0,0,0,7.95-15.91,65.6,65.6,0,0,0,52.7-26.18l6.29-9.28c14.25-1,23.2-9.94,23.2-22.86V219C333.69,204.77,323.09,187.87,307.84,187.87Zm-176.3,82.85H114.31a12.92,12.92,0,0,1-12.61-13.23c0-.12,0-.24,0-.36V215.71c0-7.62,5.3-14.58,12.6-14.58h17.23Zm102.4,54.68a19.5,19.5,0,0,1-14.25,6.3,20.21,20.21,0,0,1-19.88-19.55,19.55,19.55,0,0,1,39.1,0v0A17.54,17.54,0,0,1,233.94,325.4Zm86.5-64.95c0,8.95-8.62,10.27-12.6,10.27H293.92V201.13h13.92c7.29,0,12.6,10.27,12.6,17.89Z"/></svg>