<svg xmlns="http://www.w3.org/2000/svg" viewBox="0 0 215.74 110.85"><defs><style>.a{isolation:isolate;}.b{fill:#fff;}</style></defs><g class="a"><g class="a"><path class="b" d="M75.94,95.23a6.22,6.22,0,0,1-2.45-2.32,6.72,6.72,0,0,1,0-6.72,6.13,6.13,0,0,1,2.45-2.31,7.36,7.36,0,0,1,3.53-.83,7.6,7.6,0,0,1,3.09.6,6,6,0,0,1,2.29,1.76l-2.25,2a3.79,3.79,0,0,0-4.76-1,3.2,3.2,0,0,0-1.24,1.26,3.94,3.94,0,0,0-.43,1.87,3.88,3.88,0,0,0,.43,1.87,3.2,3.2,0,0,0,1.24,1.26,3.6,3.6,0,0,0,1.81.45,3.7,3.7,0,0,0,2.95-1.47l2.25,2a6,6,0,0,1-2.29,1.75,7.61,7.61,0,0,1-3.09.61A7.47,7.47,0,0,1,75.94,95.23Z"/></g><g class="a"><path class="b" d="M88.9,95.22a6.4,6.4,0,0,1,0-11.33,8,8,0,0,1,7.13,0,6.39,6.39,0,0,1,0,11.33,8,8,0,0,1-7.13,0Zm5.28-2.54a3.29,3.29,0,0,0,1.22-1.26,3.88,3.88,0,0,0,.44-1.87,3.94,3.94,0,0,0-.44-1.87,3.29,3.29,0,0,0-1.22-1.26,3.56,3.56,0,0,0-3.43,0,3.19,3.19,0,0,0-1.21,1.26,3.83,3.83,0,0,0-.45,1.87,3.78,3.78,0,0,0,.45,1.87,3.19,3.19,0,0,0,1.21,1.26,3.49,3.49,0,0,0,3.43,0Z"/><path class="b" d="M102.72,95.68a7.23,7.23,0,0,1-2.32-1l1.16-2.61a7.74,7.74,0,0,0,4.13,1.23c1.36,0,2-.33,2-1a.85.85,0,0,0-.58-.8,11,11,0,0,0-1.87-.54,17.69,17.69,0,0,1-2.36-.66,4,4,0,0,1-1.63-1.11,3.06,3.06,0,0,1-.67-2.08,3.55,3.55,0,0,1,.62-2.06,4.25,4.25,0,0,1,1.87-1.46,7.83,7.83,0,0,1,3-.53,11,11,0,0,1,2.43.27,7.48,7.48,0,0,1,2.1.82l-1.09,2.62a7.28,7.28,0,0,0-3.46-1,2.89,2.89,0,0,0-1.54.31.94.94,0,0,0-.48.81.81.81,0,0,0,.57.76,11.09,11.09,0,0,0,1.84.51,17.46,17.46,0,0,1,2.37.66,4.07,4.07,0,0,1,1.62,1.1,3,3,0,0,1,.69,2.07,3.58,3.58,0,0,1-.62,2,4.34,4.34,0,0,1-1.88,1.45,7.65,7.65,0,0,1-3,.55A11.64,11.64,0,0,1,102.72,95.68Z"/><path class="b" d="M124.13,95.81l0-6.63-3.22,5.39h-1.57l-3.2-5.22v6.46h-3.27V83.3h2.91l4.4,7.22,4.29-7.22h2.91l0,12.51Z"/><path class="b" d="M132.63,95.22a6.4,6.4,0,0,1,0-11.33,8,8,0,0,1,7.13,0,6.4,6.4,0,0,1,0,11.33,8,8,0,0,1-7.13,0Zm5.28-2.54a3.29,3.29,0,0,0,1.22-1.26,3.88,3.88,0,0,0,.44-1.87,3.94,3.94,0,0,0-.44-1.87,3.29,3.29,0,0,0-1.22-1.26,3.56,3.56,0,0,0-3.43,0,3.19,3.19,0,0,0-1.21,1.26,3.83,3.83,0,0,0-.45,1.87,3.78,3.78,0,0,0,.45,1.87,3.19,3.19,0,0,0,1.21,1.26,3.49,3.49,0,0,0,3.43,0Z"/></g></g><path class="b" d="M121.51,44.73a6.24,6.24,0,0,1-5-7.29h0l.62-3.24a16.23,16.23,0,0,0-12.43-19.08A16,16,0,0,0,85.86,27.58c0,.14,0,.27-.07.4a16.25,16.25,0,0,0,13.15,18.6l3.23.62a6.23,6.23,0,0,1,5,7.3,12.91,12.91,0,0,0,9.94,15.18,12.65,12.65,0,0,0,14.86-10l0-.13A12.92,12.92,0,0,0,121.51,44.73Z"/><circle class="b" cx="91.22" cy="61.03" r="8.89"/></svg>