<?xml version="1.0" encoding="utf-8"?>
<!-- Generator: Adobe Illustrator 24.0.2, SVG Export Plug-In . SVG Version: 6.00 Build 0)  -->
<svg version="1.1" id="Livello_1" xmlns="http://www.w3.org/2000/svg" xmlns:xlink="http://www.w3.org/1999/xlink" x="0px" y="0px"
	 viewBox="0 0 38 38" style="enable-background:new 0 0 38 38;" xml:space="preserve">
<style type="text/css">
	.st0{fill:#DE3AD7;}
</style>
<title>close</title>
<path class="st0" d="M20.1,19L30.2,8.9c0.3-0.3,0.3-0.7,0-1l0,0c-0.2-0.3-0.7-0.3-0.9-0.1c0,0,0,0-0.1,0.1L19.1,18L8.8,7.7
	c-0.3-0.3-0.7-0.3-1,0s-0.3,0.7,0,1l0,0L18.1,19L7.8,29.3c-0.3,0.3-0.3,0.7,0,1l0,0c0.1,0.1,0.3,0.2,0.5,0.2s0.4-0.1,0.5-0.2
	L19.1,20l10.1,10.1c0.1,0.1,0.3,0.2,0.5,0.2s0.4-0.1,0.5-0.2c0.3-0.3,0.3-0.7,0-1l0,0L20.1,19z"/>
</svg>
