<svg xmlns="http://www.w3.org/2000/svg" viewBox="0 0 304 304"><defs><style>.a{fill:#fff;}</style></defs><path class="a" d="M55.13,264,159.65,159.35l-104-96.12a27.77,27.77,0,0,0-4.08,15.33v171c0,1.12,0,2.24.11,3.35A25.15,25.15,0,0,0,55.13,264ZM180.64,159.28c15.07,13.93,29.94,27.66,44.77,41.43a1.79,1.79,0,0,0,2.5.21c7.72-4.32,15.51-8.5,23.2-12.87,8.59-4.88,13.91-12.16,14.49-22.17.69-11.82-4.75-20.44-14.93-26.14s-20.56-11.34-30.79-17.1c-1.5-.84-2.28-.53-3.38.57q-17.15,17.28-34.37,34.47C181.66,158.15,181.23,158.65,180.64,159.28Z"/><path class="a" d="M76.56,278.5c-3.15-1.06-6.29-2.11-9.43-3.19a6.34,6.34,0,0,1-1.14-.63l104.82-105L213.33,209l-15.61,8.65Q146.81,245.8,95.86,273.88c-3.77,2.07-8.1,3.12-12.16,4.65Z"/><path class="a" d="M83.7,49.58c8.09,1.44,14.78,6,21.77,9.86q48.71,26.88,97.36,53.83c.64.35,1.27.74,1.68,1L169.7,149.18,66.16,53.47c3.35-2.39,7.19-2.88,10.84-3.89Z"/><path class="a" d="M55.13,264a25.23,25.23,0,0,1-3.45-11.11c-.1-1.11-.11-2.23-.11-3.35v-171a27.77,27.77,0,0,1,4.08-15.33l104,96.12Z"/><path class="a" d="M180.64,159.28c.59-.63,1-1.13,1.49-1.6q17.19-17.22,34.37-34.47c1.1-1.1,1.88-1.41,3.38-.57,10.23,5.76,20.54,11.36,30.79,17.1s15.62,14.32,14.93,26.14c-.58,10-5.9,17.29-14.49,22.17-7.69,4.37-15.48,8.55-23.2,12.87a1.79,1.79,0,0,1-2.5-.21C210.58,186.94,195.71,173.21,180.64,159.28Z"/></svg>