<svg xmlns="http://www.w3.org/2000/svg" xmlns:xlink="http://www.w3.org/1999/xlink" viewBox="0 0 161.65 155.49"><defs><style>.a{isolation:isolate;}.b{fill:url(#a);}.c,.e{opacity:0.33;}.c,.d,.e{mix-blend-mode:multiply;}.c{fill:url(#b);}.d{fill:url(#c);}.e{fill:url(#d);}</style><linearGradient id="a" x1="16.46" y1="77.74" x2="145.19" y2="77.74" gradientUnits="userSpaceOnUse"><stop offset="0" stop-color="#ff6161"/><stop offset="1" stop-color="#8754e0"/></linearGradient><linearGradient id="b" x1="23.84" y1="77.74" x2="137.81" y2="77.74" xlink:href="#a"/><linearGradient id="c" x1="36.85" y1="77.75" x2="124.8" y2="77.75" xlink:href="#a"/><linearGradient id="d" x1="29.34" y1="77.74" x2="132.31" y2="77.74" xlink:href="#a"/></defs><g class="a"><path class="b" d="M102.89,19.29H58.76A20.25,20.25,0,0,0,41.23,29.41L19.17,67.63a20.2,20.2,0,0,0,0,20.23l22.06,38.22A20.25,20.25,0,0,0,58.76,136.2h44.13a20.23,20.23,0,0,0,17.52-10.12l22.07-38.22a20.25,20.25,0,0,0,0-20.23L120.41,29.41A20.23,20.23,0,0,0,102.89,19.29ZM86,106.92H75.66A20.23,20.23,0,0,1,58.14,96.8L53,87.86a20.2,20.2,0,0,1,0-20.23l5.16-8.94A20.23,20.23,0,0,1,75.66,48.57H86a20.25,20.25,0,0,1,17.53,10.12l5.16,8.94a20.25,20.25,0,0,1,0,20.23l-5.16,8.94A20.25,20.25,0,0,1,86,106.92Z"/><path class="c" d="M100.36,26H61.29a17.93,17.93,0,0,0-15.52,9L26.24,68.79a17.91,17.91,0,0,0,0,17.91l19.53,33.84a17.93,17.93,0,0,0,15.52,9h39.07a17.94,17.94,0,0,0,15.52-9L135.41,86.7a17.91,17.91,0,0,0,0-17.91L115.88,35A17.94,17.94,0,0,0,100.36,26Zm-15,77.58H76.26a17.91,17.91,0,0,1-15.52-8.95L56.17,86.7a17.91,17.91,0,0,1,0-17.91l4.57-7.92a17.91,17.91,0,0,1,15.52-8.95h9.13a17.92,17.92,0,0,1,15.52,8.95l4.57,7.92a17.91,17.91,0,0,1,0,17.91l-4.57,7.92A17.92,17.92,0,0,1,85.39,103.57Z"/><path class="d" d="M95.9,37.81H65.75a13.83,13.83,0,0,0-12,6.91L38.7,70.83a13.83,13.83,0,0,0,0,13.83l15.08,26.11a13.83,13.83,0,0,0,12,6.91H95.9a13.83,13.83,0,0,0,12-6.91l15.07-26.11a13.83,13.83,0,0,0,0-13.83L107.87,44.72A13.83,13.83,0,0,0,95.9,37.81ZM84.35,97.68h-7a13.84,13.84,0,0,1-12-6.92l-3.52-6.1a13.83,13.83,0,0,1,0-13.83l3.52-6.1a13.84,13.84,0,0,1,12-6.92h7a13.82,13.82,0,0,1,12,6.92l3.53,6.1a13.83,13.83,0,0,1,0,13.83l-3.53,6.1A13.82,13.82,0,0,1,84.35,97.68Z"/><path class="e" d="M98.47,31H63.17a16.2,16.2,0,0,0-14,8.09L31.51,69.65a16.15,16.15,0,0,0,0,16.19l17.64,30.57a16.2,16.2,0,0,0,14,8.09h35.3a16.17,16.17,0,0,0,14-8.09l17.65-30.57a16.2,16.2,0,0,0,0-16.19L112.49,39.08A16.17,16.17,0,0,0,98.47,31ZM85,101.08H76.7a16.17,16.17,0,0,1-14-8.09l-4.13-7.15a16.2,16.2,0,0,1,0-16.19l4.13-7.15a16.17,16.17,0,0,1,14-8.09H85A16.18,16.18,0,0,1,99,62.5l4.13,7.15a16.2,16.2,0,0,1,0,16.19L99,93A16.18,16.18,0,0,1,85,101.08Z"/></g></svg>