<svg xmlns="http://www.w3.org/2000/svg" viewBox="0 0 215.74 110.85"><defs><style>.a{fill:#0e1b2c;}</style></defs><path class="a" d="M119,24a16.23,16.23,0,0,0-22.25-5.63,16.41,16.41,0,0,0-3.13,2.43h0a16.22,16.22,0,0,0,.07,23,16,16,0,0,0,3.13,2.43A19.17,19.17,0,0,1,112.39,24h0A19.19,19.19,0,0,1,119,24Z"/><path class="a" d="M129.28,56.37A26.68,26.68,0,0,0,91.55,18.64a19.16,19.16,0,1,1,0,27.1,19.17,19.17,0,0,1,0-27.1h0a26.68,26.68,0,0,0,37.73,37.73Z"/><path class="a" d="M73.49,72.86a6.74,6.74,0,0,1,2.62,4.3H71.68a3.49,3.49,0,0,0-1.35-1.52,4.5,4.5,0,0,0-5.38.79,6.23,6.23,0,0,0,0,7.44,4.75,4.75,0,0,0,3.58,1.32A4.22,4.22,0,0,0,72.8,82H67.52V79h8.79v4.14A8.79,8.79,0,0,1,74.74,86,8.21,8.21,0,0,1,72,88.08a8.78,8.78,0,0,1-3.84.81,9,9,0,0,1-4.58-1.12,7.58,7.58,0,0,1-3-3.12,10.36,10.36,0,0,1,0-9.15,7.66,7.66,0,0,1,3-3.13,9.13,9.13,0,0,1,4.55-1.11A8.64,8.64,0,0,1,73.49,72.86Z"/><path class="a" d="M87.81,85.5h5.58v3.2H83.63V71.43h4.18Z"/><path class="a" d="M112.93,72.3a8.16,8.16,0,0,1,3.16,3.17,9.62,9.62,0,0,1,0,9.14,8.41,8.41,0,0,1-3.16,3.16,9.12,9.12,0,0,1-8.83,0,8.32,8.32,0,0,1-3.18-3.16A9.08,9.08,0,0,1,99.76,80a8.88,8.88,0,0,1,1.16-4.56,8.3,8.3,0,0,1,3.16-3.17A9.16,9.16,0,0,1,112.93,72.3Zm-7.7,4.09a6,6,0,0,0,0,7.26,4.63,4.63,0,0,0,6.52,0,6,6,0,0,0,0-7.24,4.62,4.62,0,0,0-6.53,0Z"/><path class="a" d="M137.39,81.34a4.24,4.24,0,0,1,.9,2.69,4.31,4.31,0,0,1-1.48,3.48,6.41,6.41,0,0,1-4.25,1.25h-8.07V71.43h7.85a6.4,6.4,0,0,1,4.09,1.16,3.89,3.89,0,0,1,1.45,3.28,4.09,4.09,0,0,1-.83,2.61,3.88,3.88,0,0,1-2.14,1.35A4.41,4.41,0,0,1,137.39,81.34Zm-8.68-2.83h2.75c1.45,0,2.17-.62,2.17-1.86s-.74-1.86-2.23-1.86h-2.69Zm5.3,4.92A1.78,1.78,0,0,0,133.4,82a2.59,2.59,0,0,0-1.74-.53h-2.95v3.9h3c1.54,0,2.29-.66,2.29-1.94Z"/><path class="a" d="M149.64,74.75v3.58h5.88v3.16h-5.85v3.84h6.58v3.35H145.5V71.43h10.75v3.32Z"/><path class="a" d="M79.26,98.77H77l-.39,1.12h-.9l1.89-5.5h1.08l2,5.5h-.9Zm-1.15-3.29L77.21,98H79Z"/><path class="a" d="M87.74,97.15a2.64,2.64,0,0,1-2.56,2.71H83V94.4h1.79a2.71,2.71,0,0,1,2.9,2.5,2.09,2.09,0,0,1,0,.25Zm-2.91,2a1.79,1.79,0,0,0,2-1.57,1.48,1.48,0,0,0,0-.42,1.8,1.8,0,0,0-1.53-2,1.77,1.77,0,0,0-.46,0h-.9v4Z"/><path class="a" d="M94,94.4h.89l-2.06,5.49h-1l-2-5.49h1L92.37,99Z"/></svg>