<svg xmlns="http://www.w3.org/2000/svg" viewBox="0 0 215.74 110.85"><defs><style>.a{isolation:isolate;}.b{fill:#fff;}</style></defs><g class="a"><g class="a"><path class="b" d="M80,87.53a4.18,4.18,0,0,1,2.58,4,4.16,4.16,0,0,1-2.58,4,7,7,0,0,1-2.9.56H74.89v3.22H71.4V87h5.65A7,7,0,0,1,80,87.53Zm-1.49,5.34A1.65,1.65,0,0,0,79,91.54a1.69,1.69,0,0,0-.54-1.34,2.42,2.42,0,0,0-1.63-.48H74.89v3.62h1.94A2.48,2.48,0,0,0,78.46,92.87Z"/></g><g class="a"><path class="b" d="M89.62,96H87.71v3.28H84.22V87h5.64a7,7,0,0,1,2.91.56,4.18,4.18,0,0,1,2.58,4,4.15,4.15,0,0,1-2.42,3.9l2.66,3.87H91.86Zm1.65-5.83a2.38,2.38,0,0,0-1.62-.48H87.71v3.62h1.94a2.43,2.43,0,0,0,1.62-.47,1.63,1.63,0,0,0,.55-1.33A1.66,1.66,0,0,0,91.27,90.2Z"/><path class="b" d="M97.27,87h3.49V99.31H97.27Z"/><path class="b" d="M104.67,99.19a7.27,7.27,0,0,1-2.29-1l1.15-2.57a7.88,7.88,0,0,0,4.07,1.22c1.34,0,2-.34,2-1a.83.83,0,0,0-.58-.78,10.51,10.51,0,0,0-1.84-.54,17.08,17.08,0,0,1-2.32-.65,3.78,3.78,0,0,1-1.61-1.1,2.93,2.93,0,0,1-.67-2,3.58,3.58,0,0,1,.62-2,4.1,4.1,0,0,1,1.84-1.43,7.47,7.47,0,0,1,3-.53,10.62,10.62,0,0,1,2.39.27,7.33,7.33,0,0,1,2.08.8l-1.07,2.59a7.26,7.26,0,0,0-3.42-1,2.83,2.83,0,0,0-1.52.31.91.91,0,0,0-.47.8.78.78,0,0,0,.56.74,9.32,9.32,0,0,0,1.82.51,16.46,16.46,0,0,1,2.33.65,4.08,4.08,0,0,1,1.61,1.09,2.93,2.93,0,0,1,.67,2,3.48,3.48,0,0,1-.61,2A4.21,4.21,0,0,1,110.58,99a7.52,7.52,0,0,1-3,.54A11.27,11.27,0,0,1,104.67,99.19Z"/><path class="b" d="M125.79,99.31l0-6.54-3.18,5.33H121L117.88,93v6.36h-3.23V87h2.87l4.34,7.13L126.09,87H129l0,12.34Z"/><path class="b" d="M139.74,96.92h-5.22l-1,2.39H130L135.43,87h3.44l5.47,12.34h-3.63Zm-1-2.58-1.58-4-1.59,4Z"/></g></g><polygon class="b" points="88.65 28.11 88.67 28.09 78.94 22.47 78.94 44.92 88.65 39.32 88.65 28.11"/><polygon class="b" points="78.94 22.47 88.67 28.09 98.36 22.5 98.36 11.29 78.94 22.47"/><polygon class="b" points="137.26 22.47 117.77 11.29 117.77 22.5 127.48 28.11 127.48 28.11 137.26 22.47"/><polygon class="b" points="108.06 61.73 98.36 56.13 88.65 61.73 108.1 72.97 108.1 61.71 108.06 61.73"/><polygon class="b" points="127.48 61.73 117.77 56.13 117.77 56.13 108.1 61.71 108.1 72.97 127.48 61.73"/><polygon class="b" points="127.48 28.11 127.48 39.32 137.19 44.92 137.26 22.47 127.48 28.11"/><line class="b" x1="117.77" y1="44.92" x2="117.81" y2="44.91"/><polygon class="b" points="108.09 58.77 116.31 54.03 116.31 44.49 108.09 39.76 108.09 58.77"/><polygon class="b" points="101.09 43.77 99.81 44.51 99.81 54.03 99.81 54.03 108.06 58.8 108.06 39.73 101.09 43.77"/><polygon class="b" points="108.06 30.21 99.81 25.44 91.59 30.19 108.06 39.71 108.06 30.21"/><polygon class="b" points="91.56 39.73 99.81 44.49 108.06 39.73 91.56 30.21 91.56 39.73"/><polygon class="b" points="108.09 39.72 108.09 39.72 108.06 39.73 108.06 39.73 108.06 39.73 108.09 39.76 116.31 44.49 116.31 44.51 116.31 44.49 116.34 44.48 124.56 39.73 124.56 39.73 124.56 30.21 124.56 30.21 108.09 39.72"/><polygon class="b" points="108.09 39.72 124.56 30.21 116.31 25.44 108.09 30.19 108.09 39.72"/></svg>