<svg xmlns="http://www.w3.org/2000/svg" viewBox="0 0 800 800"><defs><style>.a{fill:#0e1b2c;}</style></defs><path class="a" d="M400.24,131.82c-156.46,0-283.75,127.29-283.75,283.76S243.78,699.33,400.24,699.33,684,572,684,415.58,556.7,131.82,400.24,131.82Zm0,526.09c-133.62,0-242.33-108.71-242.33-242.33S266.62,173.24,400.24,173.24,642.58,282,642.58,415.57,533.86,657.91,400.24,657.91Z"/><path class="a" d="M495.78,416.32H407.46V293.82c0-11.15-8.66-20.66-19.8-21a20.5,20.5,0,0,0-21.2,19.78c0,.24,0,.47,0,.71V436.77A20.55,20.55,0,0,0,387,457.33H496.32a20.51,20.51,0,0,0,20.51-20.51c0-.23,0-.47,0-.7C516.45,425,506.93,416.32,495.78,416.32Z"/></svg>