<svg xmlns="http://www.w3.org/2000/svg" viewBox="0 0 215.74 110.85"><defs><style>.a{fill:#0e1b2c;}</style></defs><path class="a" d="M103.37,34.73H99.18V31.67h12.21v3.06h-4.17V45.31h-3.85Z"/><path class="a" d="M118.8,41.69h-2.11v3.62h-3.85V31.67h6.23a7.85,7.85,0,0,1,3.21.62,4.59,4.59,0,0,1,2.85,4.43,4.53,4.53,0,0,1-2.67,4.3l2.94,4.29h-4.13Zm1.83-6.45a2.66,2.66,0,0,0-1.8-.53h-2.14v4h2.14a2.76,2.76,0,0,0,1.8-.52,1.81,1.81,0,0,0,.6-1.47A1.88,1.88,0,0,0,120.63,35.24Z"/><path class="a" d="M130.24,44.67a7,7,0,0,1,0-12.35,8.64,8.64,0,0,1,7.77,0,7,7,0,0,1,0,12.35A8.77,8.77,0,0,1,130.24,44.67ZM136,41.9a3.5,3.5,0,0,0,1.33-1.37,4.55,4.55,0,0,0,0-4.07A3.6,3.6,0,0,0,136,35.08a3.88,3.88,0,0,0-3.74,0,3.5,3.5,0,0,0-1.32,1.38,4.49,4.49,0,0,0,0,4.07,3.41,3.41,0,0,0,1.32,1.37A3.83,3.83,0,0,0,136,41.9Z"/><path class="a" d="M157.09,31.67l-5.85,13.64h-3.8l-5.82-13.64h4.17l3.7,8.89,3.78-8.89Z"/><path class="a" d="M157.88,31.67h3.85V42.25h6.51v3.06H157.88Z"/><path class="a" d="M105.43,57.29H100a2.93,2.93,0,0,0,.37,1.48,2.67,2.67,0,0,0,1,1,2.9,2.9,0,0,0,1.44.36,3,3,0,0,0,1.17-.24,2.32,2.32,0,0,0,.91-.7l.16.16a2.75,2.75,0,0,1-1,.75,3.26,3.26,0,0,1-2.81-.14,2.88,2.88,0,0,1-1.09-1.1,3.28,3.28,0,0,1-.39-1.59,3.37,3.37,0,0,1,.36-1.59,2.79,2.79,0,0,1,1-1.1,2.75,2.75,0,0,1,1.45-.39,2.81,2.81,0,0,1,1.44.39,2.71,2.71,0,0,1,1,1.07,3.16,3.16,0,0,1,.38,1.56Zm-4.12-2.51a2.59,2.59,0,0,0-.92.94,2.89,2.89,0,0,0-.39,1.34h5.2a2.78,2.78,0,0,0-.39-1.34,2.47,2.47,0,0,0-.93-.94,2.51,2.51,0,0,0-1.28-.35A2.55,2.55,0,0,0,101.31,54.78Z"/><path class="a" d="M112.05,54.86a2.54,2.54,0,0,1,.65,1.88v3.6h-.23v-3.6a2.38,2.38,0,0,0-.58-1.71,2.12,2.12,0,0,0-1.62-.6,2.49,2.49,0,0,0-1.88.72A2.59,2.59,0,0,0,107.7,57v3.31h-.23v-6.1h.23v1.63a2.45,2.45,0,0,1,1-1.22,2.86,2.86,0,0,1,1.61-.44A2.45,2.45,0,0,1,112.05,54.86Z"/><path class="a" d="M120.65,54.24V59.8A2.93,2.93,0,0,1,120,62a2.88,2.88,0,0,1-2.12.7,4.56,4.56,0,0,1-1.55-.27,2.92,2.92,0,0,1-1.15-.74l.17-.17a3,3,0,0,0,1.12.71,3.78,3.78,0,0,0,1.41.25,2.27,2.27,0,0,0,2.63-2.63V58.3a2.79,2.79,0,0,1-1,1.34,3,3,0,0,1-1.71.5,3.16,3.16,0,0,1-1.53-.38,2.75,2.75,0,0,1-1.07-1.07,3.19,3.19,0,0,1,0-3,2.71,2.71,0,0,1,1.07-1,3.25,3.25,0,0,1,3.24.11,2.78,2.78,0,0,1,1,1.32V54.24Zm-1.58,5.33a2.53,2.53,0,0,0,1-1,3,3,0,0,0,0-2.84,2.53,2.53,0,0,0-1-1,3,3,0,0,0-2.84,0,2.53,2.53,0,0,0-1,1,3,3,0,0,0,0,2.84,2.41,2.41,0,0,0,1,1A3.16,3.16,0,0,0,119.07,59.57Z"/><path class="a" d="M123.26,52.46a.27.27,0,0,1-.09-.21.31.31,0,0,1,.31-.31.27.27,0,0,1,.21.09.31.31,0,0,1,.09.22.27.27,0,0,1-.09.21.28.28,0,0,1-.21.1A.27.27,0,0,1,123.26,52.46Zm.1,1.78h.24v6.1h-.24Z"/><path class="a" d="M131,54.86a2.54,2.54,0,0,1,.65,1.88v3.6h-.23v-3.6a2.37,2.37,0,0,0-.57-1.71,2.16,2.16,0,0,0-1.63-.6,2.49,2.49,0,0,0-1.88.72,2.62,2.62,0,0,0-.69,1.88v3.31h-.23v-6.1h.23v1.63a2.45,2.45,0,0,1,.95-1.22,2.86,2.86,0,0,1,1.61-.44A2.41,2.41,0,0,1,131,54.86Z"/><path class="a" d="M139.23,57.29H133.8a2.93,2.93,0,0,0,.37,1.48,2.67,2.67,0,0,0,1,1,2.9,2.9,0,0,0,1.44.36,3,3,0,0,0,1.17-.24,2.32,2.32,0,0,0,.91-.7l.16.16a2.75,2.75,0,0,1-1,.75A3.26,3.26,0,0,1,135,60a2.88,2.88,0,0,1-1.09-1.1,3.28,3.28,0,0,1-.39-1.59,3.37,3.37,0,0,1,.36-1.59,2.79,2.79,0,0,1,1-1.1,2.85,2.85,0,0,1,2.88,0,2.64,2.64,0,0,1,1,1.07,3.16,3.16,0,0,1,.38,1.56Zm-4.12-2.51a2.59,2.59,0,0,0-.92.94,2.89,2.89,0,0,0-.39,1.34H139a2.78,2.78,0,0,0-.39-1.34,2.47,2.47,0,0,0-.93-.94,2.51,2.51,0,0,0-1.28-.35A2.55,2.55,0,0,0,135.11,54.78Z"/><path class="a" d="M146.15,57.29h-5.43a2.93,2.93,0,0,0,.37,1.48,2.67,2.67,0,0,0,1,1,2.9,2.9,0,0,0,1.44.36,3,3,0,0,0,1.17-.24,2.32,2.32,0,0,0,.91-.7l.16.16a2.75,2.75,0,0,1-1,.75A3.27,3.27,0,0,1,142,60a2.88,2.88,0,0,1-1.09-1.1,3.28,3.28,0,0,1-.39-1.59,3.37,3.37,0,0,1,.36-1.59,2.79,2.79,0,0,1,1-1.1,2.75,2.75,0,0,1,1.45-.39,2.81,2.81,0,0,1,1.44.39,2.71,2.71,0,0,1,1,1.07,3.16,3.16,0,0,1,.38,1.56ZM142,54.78a2.59,2.59,0,0,0-.92.94,2.89,2.89,0,0,0-.39,1.34h5.2a2.78,2.78,0,0,0-.39-1.34,2.47,2.47,0,0,0-.93-.94,2.51,2.51,0,0,0-1.28-.35A2.55,2.55,0,0,0,142,54.78Z"/><path class="a" d="M149.34,54.63a2.63,2.63,0,0,1,1.52-.42v.23h-.07a2.16,2.16,0,0,0-1.71.71,2.77,2.77,0,0,0-.62,1.91v3.28h-.23v-6.1h.23v1.58A2.38,2.38,0,0,1,149.34,54.63Z"/><path class="a" d="M152.6,52.46a.27.27,0,0,1-.09-.21.31.31,0,0,1,.31-.31A.3.3,0,0,1,153,52a.31.31,0,0,1,.09.22.27.27,0,0,1-.09.21.28.28,0,0,1-.21.1A.26.26,0,0,1,152.6,52.46Zm.1,1.78h.23v6.1h-.23Z"/><path class="a" d="M160.29,54.86a2.54,2.54,0,0,1,.65,1.88v3.6h-.23v-3.6a2.37,2.37,0,0,0-.57-1.71,2.16,2.16,0,0,0-1.63-.6,2.49,2.49,0,0,0-1.88.72,2.62,2.62,0,0,0-.69,1.88v3.31h-.23v-6.1h.23v1.63a2.45,2.45,0,0,1,.95-1.22,2.86,2.86,0,0,1,1.61-.44A2.41,2.41,0,0,1,160.29,54.86Z"/><path class="a" d="M168.89,54.24V59.8a2.94,2.94,0,0,1-.7,2.16,2.88,2.88,0,0,1-2.12.7,4.56,4.56,0,0,1-1.55-.27,2.92,2.92,0,0,1-1.15-.74l.17-.17a3,3,0,0,0,1.12.71,3.78,3.78,0,0,0,1.41.25,2.27,2.27,0,0,0,2.63-2.63V58.3a2.78,2.78,0,0,1-1,1.34,3,3,0,0,1-1.71.5,3.16,3.16,0,0,1-1.53-.38,2.75,2.75,0,0,1-1.07-1.07,3.19,3.19,0,0,1,0-3,2.71,2.71,0,0,1,1.07-1,3.25,3.25,0,0,1,3.24.11,2.73,2.73,0,0,1,1,1.2V54.24Zm-1.58,5.33a2.53,2.53,0,0,0,1-1,3,3,0,0,0,0-2.84,2.53,2.53,0,0,0-1-1,3,3,0,0,0-2.84,0,2.53,2.53,0,0,0-1,1,3,3,0,0,0,0,2.84,2.41,2.41,0,0,0,1,1A3.16,3.16,0,0,0,167.31,59.57Z"/><polygon class="a" points="46.85 30.52 68.41 18.07 68.41 42.97 46.85 30.52"/><polyline class="a" points="89.98 30.52 68.41 18.07 68.41 42.97 89.98 30.52"/><polyline class="a" points="89.98 55.43 89.98 30.52 68.41 42.97"/><polygon class="a" points="46.85 55.43 68.41 67.88 68.41 42.97 46.85 55.43"/><polygon class="a" points="68.41 42.97 68.41 67.88 89.98 55.43 68.41 42.97"/><polygon class="a" points="46.85 55.43 46.85 80.33 68.41 67.88 46.85 55.43"/><polygon class="a" points="46.85 80.33 68.41 92.78 68.41 67.88 46.85 80.33"/><polygon class="a" points="68.41 67.88 68.41 92.78 89.98 80.33 68.41 67.88"/></svg>