<svg xmlns="http://www.w3.org/2000/svg" viewBox="0 0 215.74 110.85"><defs><style>.a{isolation:isolate;}.b{fill:#fff;}</style></defs><g class="a"><g class="a"><path class="b" d="M103.37,34.73H99.18V31.67h12.21v3.06h-4.17V45.31h-3.85Z"/><path class="b" d="M118.8,41.69h-2.11v3.62h-3.85V31.67h6.23a7.76,7.76,0,0,1,3.21.62,4.6,4.6,0,0,1,2.85,4.43,4.52,4.52,0,0,1-2.67,4.3l2.94,4.29h-4.13Zm1.83-6.45a2.69,2.69,0,0,0-1.8-.53h-2.14v4h2.14a2.74,2.74,0,0,0,1.8-.52,1.82,1.82,0,0,0,.6-1.47A1.86,1.86,0,0,0,120.63,35.24Z"/></g><g class="a"><path class="b" d="M130.24,44.67a7,7,0,0,1,0-12.35,8.66,8.66,0,0,1,7.77,0,7,7,0,0,1,0,12.35,8.75,8.75,0,0,1-7.77,0ZM136,41.9a3.51,3.51,0,0,0,1.33-1.37,4.55,4.55,0,0,0,0-4.07A3.6,3.6,0,0,0,136,35.08a3.88,3.88,0,0,0-3.74,0,3.51,3.51,0,0,0-1.32,1.38,4.47,4.47,0,0,0,0,4.07,3.42,3.42,0,0,0,1.32,1.37,3.81,3.81,0,0,0,3.74,0Z"/></g><g class="a"><path class="b" d="M157.09,31.67l-5.85,13.64h-3.8l-5.82-13.64h4.17l3.7,8.89,3.78-8.89Z"/></g><g class="a"><path class="b" d="M157.88,31.67h3.85V42.25h6.51v3.06H157.88Z"/></g></g><g class="a"><g class="a"><path class="b" d="M105.43,57.29H100a2.93,2.93,0,0,0,.37,1.48,2.67,2.67,0,0,0,1,1,2.88,2.88,0,0,0,1.44.36,2.85,2.85,0,0,0,1.17-.24,2.35,2.35,0,0,0,.91-.7l.16.16a2.83,2.83,0,0,1-1,.75,3.29,3.29,0,0,1-2.81-.14,2.88,2.88,0,0,1-1.09-1.1,3.23,3.23,0,0,1-.39-1.59,3.45,3.45,0,0,1,.36-1.59,2.83,2.83,0,0,1,1-1.1,2.74,2.74,0,0,1,1.45-.39,2.78,2.78,0,0,1,1.44.39,2.67,2.67,0,0,1,1,1.07,3.22,3.22,0,0,1,.38,1.56Zm-4.12-2.51a2.52,2.52,0,0,0-.92.94,2.9,2.9,0,0,0-.39,1.34h5.2a2.79,2.79,0,0,0-.39-1.34,2.47,2.47,0,0,0-.93-.94,2.44,2.44,0,0,0-1.28-.35A2.47,2.47,0,0,0,101.31,54.78Z"/></g><g class="a"><path class="b" d="M112.05,54.86a2.54,2.54,0,0,1,.65,1.88v3.6h-.23v-3.6a2.35,2.35,0,0,0-.58-1.71,2.13,2.13,0,0,0-1.62-.6,2.49,2.49,0,0,0-1.88.72A2.58,2.58,0,0,0,107.7,57v3.31h-.23v-6.1h.23v1.63a2.46,2.46,0,0,1,1-1.22,2.87,2.87,0,0,1,1.61-.44A2.43,2.43,0,0,1,112.05,54.86Z"/></g><g class="a"><path class="b" d="M120.65,54.24V59.8A2.94,2.94,0,0,1,120,62a2.85,2.85,0,0,1-2.12.7,4.35,4.35,0,0,1-1.55-.27,3,3,0,0,1-1.15-.74l.17-.17a3,3,0,0,0,1.12.71,3.8,3.8,0,0,0,1.41.25,2.66,2.66,0,0,0,2-.63,2.7,2.7,0,0,0,.63-2V58.3a2.78,2.78,0,0,1-1,1.34,3,3,0,0,1-1.71.5,3.15,3.15,0,0,1-1.53-.38,2.75,2.75,0,0,1-1.07-1.07,3.18,3.18,0,0,1,0-3,2.7,2.7,0,0,1,1.07-1,3,3,0,0,1,1.53-.38,3,3,0,0,1,1.71.49,2.73,2.73,0,0,1,1,1.32V54.24Zm-1.58,5.33a2.52,2.52,0,0,0,1-1,3.06,3.06,0,0,0,0-2.84,2.56,2.56,0,0,0-1-1,3.06,3.06,0,0,0-2.84,0,2.47,2.47,0,0,0-1,1,3,3,0,0,0,0,2.84,2.43,2.43,0,0,0,1,1,3.14,3.14,0,0,0,2.84,0Z"/><path class="b" d="M123.26,52.46a.29.29,0,0,1-.09-.21.31.31,0,0,1,.31-.31.29.29,0,0,1,.21.09.29.29,0,0,1,.09.22.29.29,0,0,1-.09.21.26.26,0,0,1-.21.1A.27.27,0,0,1,123.26,52.46Zm.1,1.78h.24v6.1h-.24Z"/></g><g class="a"><path class="b" d="M131,54.86a2.54,2.54,0,0,1,.65,1.88v3.6h-.23v-3.6a2.39,2.39,0,0,0-.57-1.71,2.17,2.17,0,0,0-1.63-.6,2.49,2.49,0,0,0-1.88.72,2.58,2.58,0,0,0-.69,1.88v3.31h-.23v-6.1h.23v1.63a2.46,2.46,0,0,1,.95-1.22,2.87,2.87,0,0,1,1.61-.44A2.43,2.43,0,0,1,131,54.86Z"/></g><g class="a"><path class="b" d="M139.23,57.29H133.8a2.93,2.93,0,0,0,.37,1.48,2.67,2.67,0,0,0,1,1,2.88,2.88,0,0,0,1.44.36,2.85,2.85,0,0,0,1.17-.24,2.35,2.35,0,0,0,.91-.7l.16.16a2.83,2.83,0,0,1-1,.75,3.29,3.29,0,0,1-2.81-.14,2.88,2.88,0,0,1-1.09-1.1,3.23,3.23,0,0,1-.39-1.59,3.45,3.45,0,0,1,.36-1.59,2.83,2.83,0,0,1,1-1.1,2.85,2.85,0,0,1,2.88,0,2.63,2.63,0,0,1,1,1.07,3.22,3.22,0,0,1,.38,1.56Zm-4.12-2.51a2.52,2.52,0,0,0-.92.94,2.9,2.9,0,0,0-.39,1.34H139a2.79,2.79,0,0,0-.39-1.34,2.47,2.47,0,0,0-.93-.94,2.44,2.44,0,0,0-1.28-.35A2.47,2.47,0,0,0,135.11,54.78Z"/><path class="b" d="M146.15,57.29h-5.43a2.93,2.93,0,0,0,.37,1.48,2.67,2.67,0,0,0,1,1,2.88,2.88,0,0,0,1.44.36,2.85,2.85,0,0,0,1.17-.24,2.35,2.35,0,0,0,.91-.7l.16.16a2.83,2.83,0,0,1-1,.75A3.29,3.29,0,0,1,142,60a2.88,2.88,0,0,1-1.09-1.1,3.23,3.23,0,0,1-.39-1.59,3.45,3.45,0,0,1,.36-1.59,2.83,2.83,0,0,1,1-1.1,2.74,2.74,0,0,1,1.45-.39,2.78,2.78,0,0,1,1.44.39,2.67,2.67,0,0,1,1,1.07,3.22,3.22,0,0,1,.38,1.56ZM142,54.78a2.52,2.52,0,0,0-.92.94,2.9,2.9,0,0,0-.39,1.34h5.2a2.79,2.79,0,0,0-.39-1.34,2.47,2.47,0,0,0-.93-.94,2.44,2.44,0,0,0-1.28-.35A2.5,2.5,0,0,0,142,54.78Z"/></g><g class="a"><path class="b" d="M149.34,54.63a2.6,2.6,0,0,1,1.52-.42v.23h-.07a2.15,2.15,0,0,0-1.71.71,2.78,2.78,0,0,0-.62,1.91v3.28h-.23v-6.1h.23v1.58A2.33,2.33,0,0,1,149.34,54.63Z"/></g><g class="a"><path class="b" d="M152.6,52.46a.29.29,0,0,1-.09-.21.31.31,0,0,1,.31-.31A.3.3,0,0,1,153,52a.29.29,0,0,1,.09.22.29.29,0,0,1-.09.21.28.28,0,0,1-.21.1A.27.27,0,0,1,152.6,52.46Zm.1,1.78h.23v6.1h-.23Z"/></g><g class="a"><path class="b" d="M160.29,54.86a2.54,2.54,0,0,1,.65,1.88v3.6h-.23v-3.6a2.39,2.39,0,0,0-.57-1.71,2.17,2.17,0,0,0-1.63-.6,2.49,2.49,0,0,0-1.88.72,2.58,2.58,0,0,0-.69,1.88v3.31h-.23v-6.1h.23v1.63a2.46,2.46,0,0,1,.95-1.22,2.87,2.87,0,0,1,1.61-.44A2.43,2.43,0,0,1,160.29,54.86Z"/></g><g class="a"><path class="b" d="M168.89,54.24V59.8a2.94,2.94,0,0,1-.7,2.16,2.85,2.85,0,0,1-2.12.7,4.35,4.35,0,0,1-1.55-.27,3,3,0,0,1-1.15-.74l.17-.17a3,3,0,0,0,1.12.71,3.8,3.8,0,0,0,1.41.25,2.66,2.66,0,0,0,2-.63,2.7,2.7,0,0,0,.63-2V58.3a2.78,2.78,0,0,1-1.05,1.34,3,3,0,0,1-1.71.5,3.15,3.15,0,0,1-1.53-.38,2.75,2.75,0,0,1-1.07-1.07,3.18,3.18,0,0,1,0-3,2.7,2.7,0,0,1,1.07-1,3,3,0,0,1,1.53-.38,3,3,0,0,1,1.71.49A2.73,2.73,0,0,1,168.65,56V54.24Zm-1.58,5.33a2.52,2.52,0,0,0,1-1,3.06,3.06,0,0,0,0-2.84,2.56,2.56,0,0,0-1-1,3.06,3.06,0,0,0-2.84,0,2.47,2.47,0,0,0-1,1,3,3,0,0,0,0,2.84,2.43,2.43,0,0,0,1,1,3.14,3.14,0,0,0,2.84,0Z"/></g></g><polygon class="b" points="46.85 30.52 68.41 18.07 68.41 42.97 46.85 30.52"/><polyline class="b" points="89.98 30.52 68.41 18.07 68.41 42.97 89.98 30.52"/><polyline class="b" points="89.98 55.43 89.98 30.52 68.41 42.97"/><polygon class="b" points="46.85 55.43 68.41 67.88 68.41 42.97 46.85 55.43"/><polygon class="b" points="68.41 42.97 68.41 67.88 89.98 55.43 68.41 42.97"/><polygon class="b" points="46.85 55.43 46.85 80.33 68.41 67.88 46.85 55.43"/><polygon class="b" points="46.85 80.33 68.41 92.78 68.41 67.88 46.85 80.33"/><polygon class="b" points="68.41 67.88 68.41 92.78 89.98 80.33 68.41 67.88"/></svg>