<svg xmlns="http://www.w3.org/2000/svg" viewBox="0 0 215.74 110.85"><defs><style>.a{fill:#fff;}</style></defs><polygon class="a" points="68.13 76.67 30.72 64.01 48.1 91.49 83.04 69.38 74.93 56.57 68.13 76.67"/><rect class="a" x="32.08" y="24.9" width="41.34" height="41.34" transform="translate(-7.31 80.94) rotate(-71.31)"/><path class="a" d="M86.84,51.5v6.86H82.08V38.78h7.68a7.47,7.47,0,0,1,5.34,1.76,6.19,6.19,0,0,1,1.82,4.68,6.46,6.46,0,0,1-.82,3.25,5.66,5.66,0,0,1-2.42,2.25,8.64,8.64,0,0,1-3.91.81Zm5.26-6.34c0-1.73-.95-2.59-2.85-2.59H86.84V47.7h2.41c1.89,0,2.85-.81,2.85-2.52Z"/><path class="a" d="M117,54.79h-7.34l-1.22,3.57h-5l7.17-19.44h5.44l7.17,19.44h-5Zm-1.21-3.62-2.44-7.25-2.46,7.25Z"/><path class="a" d="M135.41,51.5v6.86h-4.74V38.78h7.68a7.47,7.47,0,0,1,5.34,1.76,6.14,6.14,0,0,1,1.81,4.68,6.46,6.46,0,0,1-.81,3.25,5.71,5.71,0,0,1-2.42,2.25,8.65,8.65,0,0,1-3.92.81Zm5.26-6.34c0-1.73-.95-2.59-2.85-2.59h-2.41V47.7h2.41c1.9,0,2.85-.81,2.85-2.52Z"/><path class="a" d="M158.19,42.55v4.1h6.62v3.57h-6.62v4.35h7.44v3.79H153.42V38.78h12.19v3.77Z"/><path class="a" d="M184,58.36,179.71,51h-1.08v7.39H173.9V38.78H182a8.74,8.74,0,0,1,3.93.8,5.69,5.69,0,0,1,2.41,2.2,6.39,6.39,0,0,1,.8,3.2A5.72,5.72,0,0,1,188,48.61a6,6,0,0,1-3.43,2l4.66,7.71Zm-5.32-10.63h2.94a2.91,2.91,0,0,0,2.07-.63,2.35,2.35,0,0,0,.67-1.81,2.42,2.42,0,0,0-.67-1.81,2.84,2.84,0,0,0-2.07-.66h-2.94Z"/><path class="a" d="M100.74,69.58c-1.12,0-2-.6-2-1.59h1a.91.91,0,0,0,1,.83h0c.63,0,1-.35,1-.82,0-1.34-2.95-.47-2.95-2.51,0-1,.77-1.57,1.9-1.57a1.68,1.68,0,0,1,1.89,1.45v0h-1a.89.89,0,0,0-.9-.73c-.53,0-.91.23-.91.77,0,1.26,2.93.47,2.93,2.5a1.72,1.72,0,0,1-1.8,1.64Z"/><path class="a" d="M107.87,69.58a2.84,2.84,0,1,1,2.83-2.84h0A2.79,2.79,0,0,1,108,69.58Zm0-.79A2,2,0,1,0,106,66.6v.14a1.86,1.86,0,0,0,1.69,2Z"/><path class="a" d="M113.2,64h3.31v.74h-2.35v1.64H116v.75h-1.81v2.42h-.91Z"/><path class="a" d="M118.63,64h3.87v.74H121v4.81h-.9v-4.8h-1.49Z"/><path class="a" d="M124.57,64h1l1.15,4.53L128,64h1l1.15,4.53L131.3,64h1l-1.67,5.55h-1l-1.17-4.19-1.24,4.19h-1Z"/><path class="a" d="M138,68.39h-2.32l-.41,1.14h-.91l2-5.54h1l2,5.54h-1Zm-1.16-3.31-.91,2.57h1.81Z"/><path class="a" d="M143.69,64c1.32,0,2,.76,2,1.67a1.58,1.58,0,0,1-1.29,1.58l1.37,2.3h-1.09l-1.28-2.21h-.69v2.21h-.91V64Zm0,.74h-1v1.82h1c.72,0,1-.39,1-.91S144.4,64.72,143.69,64.72Z"/><path class="a" d="M151.48,64.71h-2.14v1.64h1.91v.74h-1.91v1.69h2.14v.75h-3.06V64h3.06Z"/></svg>