<svg xmlns="http://www.w3.org/2000/svg" viewBox="0 0 215.74 110.85"><defs><style>.a{fill:#0e1b2c;}</style></defs><path class="a" d="M80,87.53a4.39,4.39,0,0,1,0,8,7,7,0,0,1-2.9.56H74.89v3.22H71.4V87h5.65A6.93,6.93,0,0,1,80,87.53Zm-1.49,5.34A1.63,1.63,0,0,0,79,91.54a1.7,1.7,0,0,0-.54-1.34,2.45,2.45,0,0,0-1.63-.48H74.89v3.62h1.94a2.5,2.5,0,0,0,1.63-.47Z"/><path class="a" d="M89.62,96H87.71v3.28H84.22V87h5.64a7.09,7.09,0,0,1,2.91.56,4.37,4.37,0,0,1,.16,7.9l2.66,3.87H91.86Zm1.65-5.83a2.41,2.41,0,0,0-1.62-.48H87.71v3.62h1.94a2.42,2.42,0,0,0,1.62-.47,1.64,1.64,0,0,0,.55-1.33,1.66,1.66,0,0,0-.55-1.31Z"/><path class="a" d="M97.27,87h3.49V99.31H97.27Z"/><path class="a" d="M104.67,99.19a7.32,7.32,0,0,1-2.29-1l1.15-2.57a7.94,7.94,0,0,0,4.07,1.22c1.34,0,2-.34,2-1a.83.83,0,0,0-.58-.78,9.94,9.94,0,0,0-1.84-.54,17,17,0,0,1-2.32-.65,3.81,3.81,0,0,1-1.61-1.1,3,3,0,0,1-.67-2,3.58,3.58,0,0,1,.62-2A4.12,4.12,0,0,1,105,87.34a7.49,7.49,0,0,1,3-.53,10.68,10.68,0,0,1,2.39.27,7.41,7.41,0,0,1,2.08.8l-1.07,2.59a7.23,7.23,0,0,0-3.42-1,2.86,2.86,0,0,0-1.52.31.92.92,0,0,0-.47.8.78.78,0,0,0,.56.74,9.65,9.65,0,0,0,1.82.51,17.13,17.13,0,0,1,2.33.65,4,4,0,0,1,1.61,1.09,3,3,0,0,1,.67,2,3.49,3.49,0,0,1-.61,2A4.22,4.22,0,0,1,110.58,99a7.49,7.49,0,0,1-3,.54A11.42,11.42,0,0,1,104.67,99.19Z"/><path class="a" d="M125.79,99.31V92.77l-3.18,5.33H121L117.88,93v6.36h-3.23V87h2.87l4.34,7.13L126.09,87H129V99.34Z"/><path class="a" d="M139.74,96.92h-5.22l-1,2.39H130L135.43,87h3.44l5.47,12.34h-3.63Zm-1-2.58-1.58-4-1.59,4Z"/><polygon class="a" points="88.65 28.11 88.67 28.09 78.94 22.47 78.94 44.92 88.65 39.32 88.65 28.11"/><polygon class="a" points="78.94 22.47 88.67 28.09 98.36 22.5 98.36 11.29 78.94 22.47"/><polygon class="a" points="137.26 22.47 117.77 11.29 117.77 22.5 127.48 28.11 127.48 28.11 137.26 22.47"/><polygon class="a" points="108.06 61.73 98.36 56.13 88.65 61.73 108.1 72.97 108.1 61.71 108.06 61.73"/><polygon class="a" points="127.48 61.73 117.77 56.13 117.77 56.13 108.1 61.71 108.1 72.97 127.48 61.73"/><polygon class="a" points="127.48 28.11 127.48 39.32 137.19 44.92 137.26 22.47 127.48 28.11"/><line class="a" x1="117.77" y1="44.92" x2="117.81" y2="44.91"/><polygon class="a" points="108.09 58.77 116.31 54.03 116.31 44.49 108.09 39.76 108.09 58.77"/><polygon class="a" points="101.09 43.77 99.81 44.51 99.81 54.03 99.81 54.03 108.06 58.8 108.06 39.73 101.09 43.77"/><polygon class="a" points="108.06 30.21 99.81 25.44 91.59 30.19 108.06 39.71 108.06 30.21"/><polygon class="a" points="91.56 39.73 99.81 44.49 108.06 39.73 91.56 30.21 91.56 39.73"/><polygon class="a" points="108.09 39.72 108.09 39.72 108.06 39.73 108.06 39.73 108.06 39.73 108.09 39.76 116.31 44.49 116.31 44.51 116.31 44.49 116.34 44.48 124.56 39.73 124.56 39.73 124.56 30.21 124.56 30.21 108.09 39.72"/><polygon class="a" points="108.09 39.72 124.56 30.21 116.31 25.44 108.09 30.19 108.09 39.72"/></svg>