<svg xmlns="http://www.w3.org/2000/svg" viewBox="0 0 304 304"><defs><style>.a{fill:#fff;}</style></defs><path class="a" d="M203.92,282.18H196.8c-6-2.18-12.1-4.16-18-6.58a56.62,56.62,0,0,0-42.13-.69q-10.09,3.66-20.21,7.27H108.3c-.12-.1-.24-.29-.38-.31-9.48-1.56-16.78-6.89-23.36-13.46-8.58-8.57-15.35-18.52-21.39-29-15.51-26.84-24-55.53-21.92-86.81C42,141.18,44.54,130.14,50,120A73.09,73.09,0,0,1,83.77,88.11c10.31-4.88,21.21-6.76,32.41-4.32,7.41,1.62,14.65,4.07,21.89,6.4,7.55,2.42,15.16,4.76,23.12,3.24a111.46,111.46,0,0,0,16.51-4.82c7.93-2.83,15.92-5.29,24.37-5.73C218.6,82,232.77,88,245.19,98.43c3.77,3.16,7.05,6.9,10.68,10.5-20.8,12.64-31.16,30.59-29.22,54.35s14.61,40.18,36.41,49.67c-.15.5-.22.82-.35,1.13a198,198,0,0,1-25.35,43.28C228.6,268.73,219.06,279.29,203.92,282.18Z"/><path class="a" d="M200.87,21.82c1.94,17.53-3.9,32.57-15.44,45.39-9.33,10.36-21,16.62-35.29,17.16h-1.67a37.09,37.09,0,0,1,.75-17.64c6.91-23.54,22.56-38.06,46.22-44.15,1.12-.29,2.26-.51,3.4-.76Z"/></svg>