<svg xmlns="http://www.w3.org/2000/svg" viewBox="0 0 391 373"><defs><style>.a{fill:#de3ad7;}</style></defs><path class="a" d="M201.93,112.32a78.19,78.19,0,1,0,78.18,78.19A78.28,78.28,0,0,0,201.93,112.32Z"/><path class="a" d="M190.63,71.87v-20c0-7.07,4.81-13.75,11.81-14.74a13.84,13.84,0,0,1,15.84,13.68V72.94a13.83,13.83,0,0,1-15.86,13.67C195.43,85.62,190.63,78.94,190.63,71.87Z"/><path class="a" d="M190.63,309.12v20c0,7.07,4.81,13.75,11.81,14.74a13.84,13.84,0,0,0,15.84-13.69V308.06a13.84,13.84,0,0,0-15.86-13.68C195.43,295.38,190.63,302.05,190.63,309.12Z"/><path class="a" d="M273.46,119a15.28,15.28,0,0,1,0-21.58l17.26-17.26a15.26,15.26,0,0,1,21.57,21.58L295,119A15.25,15.25,0,0,1,273.46,119Z"/><path class="a" d="M130.4,262a15.25,15.25,0,0,0-21.57,0L91.57,279.29a15.26,15.26,0,1,0,21.57,21.58L130.4,283.6A15.23,15.23,0,0,0,130.4,262Z"/><path class="a" d="M320.55,178.88h20c7.08,0,13.76,4.81,14.75,11.82a13.84,13.84,0,0,1-13.69,15.83H319.49A13.83,13.83,0,0,1,305.8,190.7C306.78,183.69,313.47,178.88,320.55,178.88Z"/><path class="a" d="M83.31,178.88h-20c-7.08,0-13.76,4.81-14.74,11.82a13.83,13.83,0,0,0,13.68,15.83H84.38A13.84,13.84,0,0,0,98.06,190.7C97.07,183.69,90.39,178.88,83.31,178.88Z"/><path class="a" d="M273.46,262A15.26,15.26,0,0,1,295,262l17.26,17.26a15.25,15.25,0,0,1-21.57,21.57l-17.26-17.26A15.25,15.25,0,0,1,273.46,262Z"/><path class="a" d="M130.4,119a15.26,15.26,0,0,0,0-21.58L113.14,80.14a15.25,15.25,0,1,0-21.57,21.57L108.83,119A15.25,15.25,0,0,0,130.4,119Z"/></svg>