<svg xmlns="http://www.w3.org/2000/svg" xmlns:xlink="http://www.w3.org/1999/xlink" viewBox="0 0 247.41 333.21"><defs><style>.a{isolation:isolate;}.b{fill:url(#a);}.c{fill:url(#b);}.d{fill:url(#c);}.e{mix-blend-mode:overlay;fill:url(#d);}.f{opacity:0.42;fill:url(#e);}.g{fill:url(#f);}.h{fill:url(#g);}.i{fill:url(#h);}.j{fill:url(#i);}.k{opacity:0.32;fill:url(#j);}</style><linearGradient id="a" x1="110.62" y1="130.21" x2="216.65" y2="130.21" gradientUnits="userSpaceOnUse"><stop offset="0" stop-color="#8a0bff"/><stop offset="1" stop-color="#2a0056"/></linearGradient><linearGradient id="b" x1="94.54" y1="99.94" x2="185.51" y2="154.4" gradientUnits="userSpaceOnUse"><stop offset="0" stop-color="#8a0bff" stop-opacity="0"/><stop offset="1" stop-color="#2a0056"/></linearGradient><linearGradient id="c" x1="179.34" y1="223.73" x2="179.34" y2="50.47" gradientUnits="userSpaceOnUse"><stop offset="0" stop-color="#a553ff"/><stop offset="1" stop-color="#ae38ff"/></linearGradient><linearGradient id="d" x1="171.43" y1="143.11" x2="242.41" y2="166.09" gradientUnits="userSpaceOnUse"><stop offset="0" stop-color="#af53ff"/><stop offset="0.16" stop-color="#af4dff" stop-opacity="0.8"/><stop offset="0.39" stop-color="#af46ff" stop-opacity="0.52"/><stop offset="0.6" stop-color="#ae40ff" stop-opacity="0.29"/><stop offset="0.78" stop-color="#ae3cff" stop-opacity="0.13"/><stop offset="0.92" stop-color="#ae39ff" stop-opacity="0.04"/><stop offset="1" stop-color="#ae38ff" stop-opacity="0"/></linearGradient><linearGradient id="e" x1="124.91" y1="144.96" x2="218.98" y2="191.24" gradientUnits="userSpaceOnUse"><stop offset="0" stop-color="#8a0bff"/><stop offset="1" stop-color="#2a0056" stop-opacity="0"/></linearGradient><linearGradient id="f" x1="49.1" y1="203" x2="155.13" y2="203" gradientUnits="userSpaceOnUse"><stop offset="0" stop-color="#3d0056"/><stop offset="1" stop-color="#ff0ba2"/></linearGradient><linearGradient id="g" x1="100.23" y1="178.99" x2="162.62" y2="264.72" gradientUnits="userSpaceOnUse"><stop offset="0" stop-color="#3d0056"/><stop offset="1" stop-color="#e33fc5"/></linearGradient><linearGradient id="h" x1="86.4" y1="282.73" x2="86.4" y2="109.47" gradientUnits="userSpaceOnUse"><stop offset="0" stop-color="#df38ff"/><stop offset="1" stop-color="#ff39ff"/></linearGradient><linearGradient id="i" x1="28.92" y1="157.66" x2="156.84" y2="216.24" gradientUnits="userSpaceOnUse"><stop offset="0" stop-color="#9e0082"/><stop offset="1" stop-color="#ff39ff" stop-opacity="0"/></linearGradient><linearGradient id="j" x1="-1281.38" y1="122.22" x2="-1187.31" y2="168.5" gradientTransform="translate(-1140.55 310.47) rotate(180)" xlink:href="#e"/></defs><g class="a"><path class="b" d="M141.17,36.69H110.62l62.84,122.86L142,223.73h37a14.48,14.48,0,0,0,13-8.12l22.14-45.22a24.1,24.1,0,0,0-.19-21.58L163.7,50.47A25.3,25.3,0,0,0,141.17,36.69Z"/><path class="c" d="M141.17,36.69H110.62l62.84,122.86L142,223.73h37a14.48,14.48,0,0,0,13-8.12l22.14-45.22a24.1,24.1,0,0,0-.19-21.58L163.7,50.47A25.3,25.3,0,0,0,141.17,36.69Z"/><path class="d" d="M163.7,50.47c25.05,49,27,73.85,9.76,109.08L142,223.73h37a14.48,14.48,0,0,0,13-8.12l22.14-45.22a24.1,24.1,0,0,0-.19-21.58Z"/><path class="e" d="M163.7,50.47c25.05,49,27,73.85,9.76,109.08L142,223.73h37a14.48,14.48,0,0,0,13-8.12l22.14-45.22a24.1,24.1,0,0,0-.19-21.58Z"/><path class="f" d="M214,148.81l-14.19-27.74c1,15.89-2.87,30.39-11.13,47.25l-27.13,55.41H179a14.48,14.48,0,0,0,13-8.12l22.14-45.22A24.1,24.1,0,0,0,214,148.81Z"/><path class="g" d="M124.57,296.52h30.56L92.28,173.65l31.43-64.18h-37a14.48,14.48,0,0,0-13,8.12L51.55,162.82a24.08,24.08,0,0,0,.19,21.57L102,282.73A25.32,25.32,0,0,0,124.57,296.52Z"/><path class="h" d="M124.57,296.52h30.56L92.28,173.65l31.43-64.18h-37a14.48,14.48,0,0,0-13,8.12L51.55,162.82a24.08,24.08,0,0,0,.19,21.57L102,282.73A25.32,25.32,0,0,0,124.57,296.52Z"/><path class="i" d="M102,282.73c-25.05-49-27-73.85-9.76-109.08l31.43-64.18h-37a14.48,14.48,0,0,0-13,8.12L51.55,162.82a24.08,24.08,0,0,0,.19,21.57Z"/><path class="j" d="M102,282.73c-25.05-49-27-73.85-9.76-109.08l31.43-64.18h-37a14.48,14.48,0,0,0-13,8.12L51.55,162.82a24.08,24.08,0,0,0,.19,21.57Z"/><path class="k" d="M51.74,184.39l14.19,27.75c-1-15.9,2.88-30.39,11.13-47.25l27.13-55.42H86.71a14.48,14.48,0,0,0-13,8.12L51.55,162.82A24.08,24.08,0,0,0,51.74,184.39Z"/></g></svg>