<svg xmlns="http://www.w3.org/2000/svg" viewBox="0 0 800 800"><defs><style>.a{fill:#fff;}</style></defs><path class="a" d="M643.19,156.57h-64.3V114c0-12.84-10.52-23.2-23.32-22.13a21.56,21.56,0,0,0-19.71,21.52v43.2H276.41V114c0-12.84-10.52-23.2-23.32-22.13a21.56,21.56,0,0,0-19.72,21.52v43.2H167.81a64.81,64.81,0,0,0-64.8,64.8V632.2a64.8,64.8,0,0,0,64.8,64.8H643.19A64.8,64.8,0,0,0,708,632.2V221.37A64.81,64.81,0,0,0,643.19,156.57Zm.16,497.4H167.65A21.61,21.61,0,0,1,146,632.37V351.48H665V632.37A21.61,21.61,0,0,1,643.35,654ZM665,308.45H146v-86a21.61,21.61,0,0,1,21.61-21.6h65.72v42.59c0,12.85,10.52,23.2,23.32,22.14a21.58,21.58,0,0,0,19.72-21.53v-43.2H535.86v42.59c0,12.85,10.52,23.2,23.32,22.14a21.57,21.57,0,0,0,19.71-21.53v-43.2h64.46A21.61,21.61,0,0,1,665,222.47v86Z"/><path class="a" d="M276.12,394.51H233.78c-12.84,0-23.19,10.52-22.13,23.32a21.51,21.51,0,0,0,21.44,19.71h42.34c12.84,0,23.19-10.51,22.13-23.31A21.51,21.51,0,0,0,276.12,394.51Z"/><path class="a" d="M427.32,394.51H385c-12.84,0-23.19,10.52-22.13,23.32a21.51,21.51,0,0,0,21.44,19.71h42.34c12.84,0,23.19-10.51,22.13-23.31A21.51,21.51,0,0,0,427.32,394.51Z"/><path class="a" d="M578.52,394.51H536.18c-12.84,0-23.19,10.52-22.13,23.32a21.51,21.51,0,0,0,21.44,19.71h42.34c12.84,0,23.19-10.51,22.13-23.31A21.51,21.51,0,0,0,578.52,394.51Z"/><path class="a" d="M276.12,480.58H233.78c-12.84,0-23.19,10.51-22.13,23.31a21.51,21.51,0,0,0,21.44,19.72h42.34c12.84,0,23.19-10.52,22.13-23.32A21.51,21.51,0,0,0,276.12,480.58Z"/><path class="a" d="M427.32,480.58H385c-12.84,0-23.19,10.51-22.13,23.31a21.51,21.51,0,0,0,21.44,19.72h42.34c12.84,0,23.19-10.52,22.13-23.32A21.51,21.51,0,0,0,427.32,480.58Z"/><path class="a" d="M578.52,480.58H536.18c-12.84,0-23.19,10.51-22.13,23.31a21.51,21.51,0,0,0,21.44,19.72h42.34c12.84,0,23.19-10.52,22.13-23.32A21.51,21.51,0,0,0,578.52,480.58Z"/><path class="a" d="M276.12,567.91H233.78c-12.84,0-23.19,10.51-22.13,23.31a21.51,21.51,0,0,0,21.44,19.72h42.34c12.84,0,23.19-10.52,22.13-23.32A21.51,21.51,0,0,0,276.12,567.91Z"/><path class="a" d="M427.32,567.91H385c-12.84,0-23.19,10.51-22.13,23.31a21.51,21.51,0,0,0,21.44,19.72h42.34c12.84,0,23.19-10.52,22.13-23.32A21.51,21.51,0,0,0,427.32,567.91Z"/><path class="a" d="M578.52,567.91H536.18c-12.84,0-23.19,10.51-22.13,23.31a21.51,21.51,0,0,0,21.44,19.72h42.34c12.84,0,23.19-10.52,22.13-23.32A21.51,21.51,0,0,0,578.52,567.91Z"/></svg>