<svg xmlns="http://www.w3.org/2000/svg" viewBox="0 0 215.74 110.85"><defs><style>.a{fill:#fff;}</style></defs><path class="a" d="M69.17,82.85a5.47,5.47,0,0,1-2.29,2,8,8,0,0,1-3.67.76A8.67,8.67,0,0,1,57.85,84a5.73,5.73,0,0,1-2.24-4.38h5a2.55,2.55,0,0,0,.78,1.72,2.37,2.37,0,0,0,1.7.63,2,2,0,0,0,1.35-.48,1.9,1.9,0,0,0,0-2.54,4,4,0,0,0-1.19-.81c-.48-.2-1.13-.46-2-.75a24.42,24.42,0,0,1-3-1.21,5.44,5.44,0,0,1-2-1.75,5.65,5.65,0,0,1,0-6,5.49,5.49,0,0,1,2.54-1.94,8.75,8.75,0,0,1,3.54-.67,7.91,7.91,0,0,1,5.12,1.53,5.87,5.87,0,0,1,2.16,4.21H64.54a2.64,2.64,0,0,0-.69-1.51,2.09,2.09,0,0,0-1.52-.56A2,2,0,0,0,61,70,1.79,1.79,0,0,0,61,72.4a3.31,3.31,0,0,0,1.14.78c.45.2,1.11.45,2,.76a21.83,21.83,0,0,1,3,1.25,5.82,5.82,0,0,1,2,1.79A5.19,5.19,0,0,1,69.93,80,5.35,5.35,0,0,1,69.17,82.85Z"/><path class="a" d="M82.61,66.16V77.3a4.39,4.39,0,0,0,.86,2.93,3.59,3.59,0,0,0,5,0,4.5,4.5,0,0,0,.86-2.93V66.16H94V77.3a9.26,9.26,0,0,1-1.07,4.61A7.12,7.12,0,0,1,90,84.72a9,9,0,0,1-4.16.94,8.68,8.68,0,0,1-4.1-.93A6.5,6.5,0,0,1,79,81.92a9.48,9.48,0,0,1-1-4.62V66.16Z"/><path class="a" d="M124.33,66.3V85.52h-4.67v-12l-4.15,12h-4l-4.18-12v12h-4.72V66.3h5.71l5.21,13.35,5.08-13.35Z"/><path class="a" d="M137.74,66.16V85.52h-4.67V66.16Z"/><path class="a" d="M160.36,66.16v3.71h-5.24V85.52h-4.7V69.87h-5.19V66.16Z"/><polygon class="a" points="92.63 49.04 110.92 39.87 101.75 58.16 87.86 58.56 92.63 49.04"/><polygon class="a" points="129.22 49.04 110.92 39.87 120.08 58.16 133.99 58.56 129.22 49.04"/><polygon class="a" points="119.05 29.19 114.11 38.82 127.39 45.47 119.05 29.19"/><polygon class="a" points="107.72 38.82 102.78 29.19 94.44 45.47 107.72 38.82"/><polygon class="a" points="110.92 39.87 117.72 26.59 110.92 13.32 104.11 26.59 110.92 39.87"/><polygon class="a" points="117.63 58.56 110.92 45.47 104.22 58.56 117.63 58.56"/><path class="a" d="M81.52,91.33c1.46,0,2.17.84,2.17,1.83a1.76,1.76,0,0,1-1.42,1.75l1.48,2.55H82.52L81.11,95h-.77v2.45h-1V91.33Zm0,.82H80.37v2h1.15c.79,0,1.14-.43,1.14-1A1,1,0,0,0,81.52,92.15Z"/><path class="a" d="M90.09,92.14H87.71v1.8h2.12v.81H87.71v1.88h2.38v.83H86.71V91.32h3.38Z"/><path class="a" d="M95.12,97.51c-1.23,0-2.17-.67-2.17-1.75H94a1,1,0,0,0,1.08.91h0c.7,0,1.1-.38,1.1-.9,0-1.48-3.25-.52-3.25-2.78,0-1.07.85-1.74,2.1-1.74a1.87,1.87,0,0,1,2.08,1.63v0H96.05a1,1,0,0,0-1-.8c-.58,0-1,.26-1,.85,0,1.38,3.24.52,3.24,2.75a1.91,1.91,0,0,1-2,1.82Z"/><path class="a" d="M103.57,92.14H101.2v1.8h2.11v.81H101.2v1.88h2.37v.83h-3.38V91.32h3.38Z"/><path class="a" d="M110.27,96.2h-2.56l-.44,1.26h-1l2.19-6.13h1.17l2.14,6.13h-1.06ZM109,92.54l-1,2.84h2Z"/><path class="a" d="M116.61,91.33c1.45,0,2.17.84,2.17,1.83a1.76,1.76,0,0,1-1.42,1.75l1.51,2.55h-1.19L116.27,95h-.75v2.45h-1V91.33Zm0,.82h-1.09v2h1.11a1,1,0,0,0,1.13-.85s0-.1,0-.15C117.75,92.54,117.39,92.15,116.61,92.15Z"/><path class="a" d="M124.63,91.25a2.9,2.9,0,0,1,2.89,1.84h-1.2a1.73,1.73,0,0,0-1.64-1,2.26,2.26,0,0,0,0,4.5,1.73,1.73,0,0,0,1.64-1h1.2a2.9,2.9,0,0,1-2.89,1.87,3.13,3.13,0,1,1-.36-6.25h.36Z"/><path class="a" d="M134.3,94.77h-2.88v2.69h-1V91.33h1V94h2.88V91.33h1v6.13h-1Z"/></svg>