<svg xmlns="http://www.w3.org/2000/svg" xmlns:xlink="http://www.w3.org/1999/xlink" viewBox="0 0 161.65 155.49"><defs><style>.a{isolation:isolate;}.b{fill:url(#a);}.c,.d{mix-blend-mode:multiply;}.c{fill:url(#b);}.d{fill:url(#c);}</style><linearGradient id="a" x1="129.76" y1="157.86" x2="53.17" y2="32.47" gradientUnits="userSpaceOnUse"><stop offset="0" stop-color="#6461ff"/><stop offset="1" stop-color="#54e083"/></linearGradient><linearGradient id="b" x1="79.98" y1="41.5" x2="101.29" y2="111.34" gradientUnits="userSpaceOnUse"><stop offset="0" stop-color="#6461ff"/><stop offset="1" stop-color="#54e083" stop-opacity="0.39"/></linearGradient><linearGradient id="c" x1="-1014.29" y1="868.04" x2="-992.98" y2="937.88" gradientTransform="translate(-823.6 -935.1) rotate(-90)" xlink:href="#b"/></defs><g class="a"><path class="b" d="M80.82,19.72a58,58,0,1,0,58,58A58,58,0,0,0,80.82,19.72Zm0,75.7A17.68,17.68,0,1,1,98.5,77.74,17.67,17.67,0,0,1,80.82,95.42Z"/><path class="c" d="M94,52a35.52,35.52,0,1,0,35.52,35.52A35.52,35.52,0,0,0,94,52ZM80.82,95.42A17.68,17.68,0,1,1,98.5,77.74,17.67,17.67,0,0,1,80.82,95.42Z"/><path class="d" d="M54.9,65.16A35.52,35.52,0,1,0,90.42,29.65,35.52,35.52,0,0,0,54.9,65.16ZM98.36,78.35A17.68,17.68,0,1,1,80.69,60.68,17.67,17.67,0,0,1,98.36,78.35Z"/></g></svg>