<svg xmlns="http://www.w3.org/2000/svg" viewBox="0 0 215.74 110.85"><defs><style>.a{fill:#0e1b2c;}</style></defs><path class="a" d="M75.94,95.23a6.28,6.28,0,0,1-2.45-2.32,6.72,6.72,0,0,1,0-6.72,6.19,6.19,0,0,1,2.45-2.31,7.34,7.34,0,0,1,3.53-.83,7.63,7.63,0,0,1,3.09.6,6,6,0,0,1,2.29,1.76l-2.25,2a3.8,3.8,0,0,0-4.76-1,3.26,3.26,0,0,0-1.24,1.26,3.92,3.92,0,0,0-.43,1.87,3.81,3.81,0,0,0,.43,1.87,3.26,3.26,0,0,0,1.24,1.26,3.58,3.58,0,0,0,1.81.45,3.68,3.68,0,0,0,2.95-1.47l2.25,2a6.05,6.05,0,0,1-2.29,1.75,7.64,7.64,0,0,1-3.09.61A7.47,7.47,0,0,1,75.94,95.23Z"/><path class="a" d="M88.9,95.22a6.4,6.4,0,0,1,0-11.33,8,8,0,0,1,7.13,0,6.39,6.39,0,0,1,0,11.33A8,8,0,0,1,88.9,95.22Zm5.28-2.54a3.35,3.35,0,0,0,1.22-1.26,4.19,4.19,0,0,0,0-3.74,3.35,3.35,0,0,0-1.22-1.26,3.54,3.54,0,0,0-3.43,0,3.26,3.26,0,0,0-1.21,1.26,4.11,4.11,0,0,0,0,3.74,3.26,3.26,0,0,0,1.21,1.26A3.49,3.49,0,0,0,94.18,92.68Z"/><path class="a" d="M102.72,95.68a7,7,0,0,1-2.32-1l1.16-2.61a7.74,7.74,0,0,0,4.13,1.23c1.36,0,2-.33,2-1a.86.86,0,0,0-.58-.8,11.1,11.1,0,0,0-1.87-.54,19.2,19.2,0,0,1-2.36-.66,4,4,0,0,1-1.63-1.11,3.08,3.08,0,0,1-.67-2.08,3.61,3.61,0,0,1,.62-2.06,4.27,4.27,0,0,1,1.87-1.46,7.88,7.88,0,0,1,3-.53,11,11,0,0,1,2.43.27,7.46,7.46,0,0,1,2.1.82l-1.09,2.62a7.27,7.27,0,0,0-3.46-1,2.93,2.93,0,0,0-1.54.31.93.93,0,0,0-.48.81.82.82,0,0,0,.57.76,11.66,11.66,0,0,0,1.84.51,16.34,16.34,0,0,1,2.37.66,4.1,4.1,0,0,1,1.62,1.1,3,3,0,0,1,.69,2.07,3.58,3.58,0,0,1-.62,2,4.33,4.33,0,0,1-1.88,1.45,7.68,7.68,0,0,1-3,.55A11.77,11.77,0,0,1,102.72,95.68Z"/><path class="a" d="M124.13,95.81V89.18l-3.22,5.39h-1.57l-3.2-5.22v6.46h-3.27V83.3h2.91l4.4,7.22,4.29-7.22h2.91V95.81Z"/><path class="a" d="M132.63,95.22a6.4,6.4,0,0,1,0-11.33,8,8,0,0,1,7.13,0,6.4,6.4,0,0,1,0,11.33A8,8,0,0,1,132.63,95.22Zm5.28-2.54a3.35,3.35,0,0,0,1.22-1.26,4.19,4.19,0,0,0,0-3.74,3.35,3.35,0,0,0-1.22-1.26,3.54,3.54,0,0,0-3.43,0,3.26,3.26,0,0,0-1.21,1.26,4.11,4.11,0,0,0,0,3.74,3.26,3.26,0,0,0,1.21,1.26A3.49,3.49,0,0,0,137.91,92.68Z"/><path class="a" d="M121.51,44.73a6.24,6.24,0,0,1-5-7.27v0h0l.62-3.24A16.23,16.23,0,0,0,104.7,15.12,16,16,0,0,0,85.86,27.58a.79.79,0,0,1-.07.4,16.26,16.26,0,0,0,13.15,18.6l3.23.62a6.23,6.23,0,0,1,5,7.25v0a12.91,12.91,0,0,0,9.94,15.18,12.64,12.64,0,0,0,14.85-10v-.16A12.92,12.92,0,0,0,121.51,44.73Z"/><circle class="a" cx="91.22" cy="61.03" r="8.89"/></svg>