<svg xmlns="http://www.w3.org/2000/svg" viewBox="0 0 800 800"><defs><style>.a{fill:#0e1b2c;}</style></defs><path class="a" d="M653.77,180H145.23A54.31,54.31,0,0,0,91,234.23V559.6a54.31,54.31,0,0,0,54.23,54.23H653.77A54.28,54.28,0,0,0,708,559.6V234.23A54.28,54.28,0,0,0,653.77,180Zm-7.69,36.15L437.75,423.39a54.22,54.22,0,0,1-76.68,0l0,0-208.3-207.2ZM127.15,551.93V241.3L283.38,396.7Zm25.6,25.75L308.92,422.51,335.5,449a90.38,90.38,0,0,0,127.78,0l26.62-26.47L646.06,577.68Zm519.1-25.75L515.62,396.7,671.85,241.3Z"/></svg>