<svg xmlns="http://www.w3.org/2000/svg" viewBox="0 0 800 800"><defs><style>.a{fill:#fff;}</style></defs><path class="a" d="M507.94,281.11h-145a23.19,23.19,0,1,0-.26,46.37H507.94a23.19,23.19,0,0,0,0-46.37Z"/><path class="a" d="M563.29,391.93H362.63a23.19,23.19,0,1,0-.25,46.37H563a23.19,23.19,0,1,0,.26-46.37Z"/><path class="a" d="M666.05,137.49H253.47a16.81,16.81,0,0,0-16.81,16.81V377.23H173.33A63.33,63.33,0,0,0,110,440.56V590.15c0,45.78,35.19,84.47,80.87,87.35a87,87,0,0,0,17.06-.59H586.51A102.49,102.49,0,0,0,689,574.42v-414A22.94,22.94,0,0,0,666.05,137.49ZM237.79,590.77A40.68,40.68,0,0,1,205,630.55h-7.88v.76a40.67,40.67,0,0,1-40.71-40.54V463a40.53,40.53,0,0,1,40.53-40.54h40.89v168.3Zm406-16.87c0,30.7-25.95,56.65-56.68,56.65H273.3A85.91,85.91,0,0,0,283,590.74v-408H643.77V573.9Z"/><path class="a" d="M507.94,496h-145a23.19,23.19,0,1,0-.26,46.37H507.94a23.19,23.19,0,0,0,0-46.37Z"/></svg>